<svg xmlns="http://www.w3.org/2000/svg" xmlns:xlink="http://www.w3.org/1999/xlink" fill="none" version="1.1" width="752.1099243164062" height="180.44241333007812" viewBox="0 0 752.1099243164062 180.44241333007812"><g style="mix-blend-mode:passthrough"><path d="M599.596,0L618.799,0L618.799,35.8906L639.643,35.8906L639.643,54.9219L618.799,54.9219L618.799,57.4877Q622.293,62.2321,631.073,75.4836Q636.862,84.2211,640.37,89.6657Q640.518,84.0463,640.518,77.6094L640.518,10.4375L731.57,10.4375L731.517,13.4892Q730.384,79.2601,732.217,117.13Q733.132,136.025,734.73,145.798Q735.106,148.096,735.506,149.816Q736.405,145.4,736.885,138.693L737.527,129.695L742.401,137.285Q743.579,139.12,746.255,141.488Q748.594,143.557,750.318,144.57L752.11,145.622L751.755,147.669Q749.223,162.256,744.92,169.288Q742.875,172.632,740.409,174.296Q737.908,175.985,735.16,175.89Q726.589,175.848,721.771,163.761Q719.158,157.203,717.372,146.291L704.18,154.538L702.982,150.91Q698.821,138.319,689.491,117.524Q678.261,141.905,665.034,158.758L662.68,161.758L660.318,158.764Q658.801,156.841,656.188,154.582Q653.495,152.254,651.129,150.872L649.778,150.083Q644.346,165.899,635.878,177.29L633.535,180.442L631.11,177.352Q629.553,175.366,626.742,172.662Q623.745,169.778,622.072,168.778L619.263,167.099L621.18,164.446Q632.949,148.159,637.446,122.191Q639.134,112.45,639.877,100.904L631.317,112.387L629.241,107.679Q627.234,103.126,622.374,94.1535Q620.67,91.0089,618.799,87.6534L618.799,177.766L599.596,177.766L599.596,104.947Q597.753,109.889,595.856,114.406Q590.331,127.557,584.833,135.873L581.489,140.931L579.497,135.204Q578.532,132.432,576.313,128.335Q574.356,124.722,572.406,121.835L571.233,120.099L572.46,118.4Q580.253,107.611,587.738,88.3954Q594.243,71.6956,598.12,54.9219L576.346,54.9219L576.346,35.8906L599.596,35.8906L599.596,0ZM395.739,15.6563L407.297,0.699486L409.445,1.64489Q419.344,6.00252,428.956,11.2253Q439.912,17.1787,445.615,21.6951L447.815,23.4378L436.376,40.0376L433.855,37.9806Q428.132,33.3105,418.215,27.3639Q408.175,21.3436,399.176,17.2282L395.739,15.6563ZM489.299,0.828125L509.439,0.828125L509.439,43.1406L562.643,43.1406L562.643,62.8906L517.777,62.8906Q521.274,72.2558,525.752,81.4598Q531.173,92.603,537.587,102.596Q544.1,112.744,551.123,120.9Q558.341,129.284,565.588,134.968L568.612,137.34L565.577,139.697Q563.081,141.636,560.245,144.592Q557.226,147.739,555.644,150.179L553.74,153.114L551.13,150.786Q537.487,138.616,524.798,118.371Q516.428,105.018,509.439,89.736L509.439,177.547L489.299,177.547L489.299,91.1105Q482.111,106.749,473.143,120.453Q459.982,140.565,445.308,152.905L442.821,154.997L440.934,152.351Q439.15,149.849,436.392,146.791Q433.49,143.574,431.227,141.671L428.36,139.259Q426.913,141.973,425.422,144.72Q416.441,161.271,408.372,174.428L406.629,177.27L392.079,166.081L389.843,164.361L391.422,162.024Q398.954,150.876,408.395,134.342Q418.226,117.126,425.806,101.591L427.513,98.0925L442.627,111.122L441.625,113.196Q435.551,125.766,428.432,139.123L431.383,136.957Q438.99,131.372,446.529,122.842Q453.829,114.583,460.585,104.112Q467.196,93.8645,472.778,82.292Q477.399,72.7099,480.991,62.8906L437.971,62.8906L437.971,43.1406L489.299,43.1406L489.299,0.828125ZM615.799,38.8906L636.643,38.8906L636.643,51.9219L615.799,51.9219L615.799,58.4844C620.569,64.762,636.338,88.8578,640.191,94.9635C640.25,95.0581,640.307,95.1485,640.361,95.2344L640.168,95.4937L634.033,103.723L631.986,106.469C631.581,105.55,631.097,104.513,630.546,103.381C627.72,97.565,623.163,89.2314,618.799,81.5392C617.78,79.7434,616.772,77.9826,615.799,76.2969L615.799,174.766L602.596,174.766L602.596,86.7969C601.631,89.9014,600.629,92.9801,599.596,96.0074C595.007,109.448,589.788,121.875,584.316,131.051C583.658,132.155,582.995,133.213,582.33,134.219C581.968,133.179,581.489,132.031,580.935,130.836C579.193,127.076,576.719,122.86,574.893,120.156C585.414,105.588,595.764,78.6112,601.196,54.9219C601.427,53.9155,601.649,52.9151,601.861,51.9219L579.346,51.9219L579.346,38.8906L602.596,38.8906L602.596,3L615.799,3L615.799,38.8906ZM506.439,46.1406L559.643,46.1406L559.643,59.8906L513.502,59.8906C513.852,60.891,514.211,61.8912,514.578,62.8906C525.097,91.5128,542.618,119.566,561.354,135.388C562.146,136.057,562.94,136.704,563.736,137.328C563.011,137.891,562.217,138.56,561.394,139.301C559.193,141.28,556.782,143.769,554.905,146.112C554.232,146.953,553.628,147.774,553.127,148.547C552.379,147.88,551.634,147.194,550.892,146.489C535.022,131.425,520.415,107.887,509.439,82.3145C508.407,79.9082,507.406,77.4838,506.439,75.0469L506.439,174.547L492.299,174.547L492.299,76.3594C491.336,78.8252,490.335,81.2715,489.299,83.6937C478.029,110.039,462.562,133.548,445.654,148.636C444.897,149.311,444.139,149.969,443.377,150.609C442.856,149.878,442.238,149.069,441.556,148.221C439.758,145.987,437.514,143.483,435.415,141.437C434.632,140.673,433.87,139.974,433.158,139.375C433.973,138.777,434.785,138.156,435.594,137.512C455.373,121.779,473.471,92.6313,484.182,62.8906C484.542,61.8911,484.893,60.891,485.236,59.8906L440.971,59.8906L440.971,46.1406L492.299,46.1406L492.299,3.82812L506.439,3.82812L506.439,46.1406ZM400.424,14.5C401.336,14.917,402.264,15.3538,403.205,15.8076C413.737,20.889,425.801,28.1118,433.383,33.8068C434.232,34.4441,435.024,35.0623,435.752,35.6562L437.46,33.1782L443.752,24.0469C435.939,17.8594,420.127,9.625,408.236,4.39062L402.306,12.0639L400.424,14.5ZM643.124,96.5476C643.162,95.7482,643.197,94.9518,643.228,94.159C643.456,88.4161,643.518,82.854,643.518,77.6094L643.518,13.4375L728.518,13.4375C728.5,14.4415,728.483,15.4415,728.467,16.4375C727.09,100.868,729.529,156.531,735.783,156.531C737.212,156.531,738.64,151.329,739.494,143.263C739.639,141.89,739.768,140.434,739.877,138.906C740.562,139.974,741.539,141.104,742.618,142.185C744.762,144.332,747.313,146.283,748.799,147.156C745.268,167.5,739.689,173.078,735.221,172.891C727.628,172.891,722.967,162.892,720.128,144.568C720.088,144.303,720.047,144.037,720.007,143.769C716.285,118.966,715.788,79.3439,715.871,28.8906C715.873,27.8948,715.875,26.8948,715.877,25.8906L656.549,25.8906L656.549,77.6094C656.549,106.126,653.745,145.929,635.278,172.964C634.691,173.822,634.089,174.668,633.471,175.5C632.958,174.846,632.259,174.042,631.456,173.177C629.753,171.345,627.581,169.24,625.714,167.722C624.943,167.096,624.224,166.569,623.611,166.203C624.198,165.39,624.769,164.567,625.322,163.732C638.203,144.311,642.046,119.191,643.124,96.5476ZM51.6582,164.891Q36.8763,164.891,23.7986,159.209Q11.3336,153.793,1.87834,143.884L0,141.915L14.1773,125.465L16.4604,127.874Q23.4686,135.267,32.6468,139.483Q42.1062,143.828,51.8457,143.828Q58.0826,143.828,63.0887,142.353Q67.7979,140.965,71.0824,138.372Q74.2253,135.891,75.852,132.464Q77.5019,128.988,77.5019,124.734Q77.5019,120.291,76.0245,117.026Q74.6979,114.094,71.9623,111.688Q69.4795,109.505,65.2905,107.305Q62.5363,105.858,56.4086,103.155L36.9032,94.6189Q24.4066,89.2897,17.3237,81.9093Q7.37691,71.5445,7.37691,56.9531Q7.37691,48.5199,10.9057,41.1675Q14.3255,34.042,20.6561,28.7509Q26.9081,23.5255,35.2358,20.7304Q43.6966,17.8906,53.3457,17.8906Q65.7205,17.8906,77.0423,22.8154Q87.6891,27.4466,95.4904,35.5435L97.3339,37.4568L84.7095,52.9775L82.3618,50.7875Q76.1971,45.0368,69.305,42.1134Q61.8915,38.9687,53.3457,38.9688Q48.0256,38.9688,43.6791,40.2277Q39.5464,41.4248,36.6361,43.6604Q30.8613,48.0963,30.8613,55.6406Q30.8613,59.6295,32.5453,62.7846Q34.0548,65.6126,37.0561,68.0299Q39.6751,70.1391,43.774,72.1863Q46.2964,73.446,51.5824,75.6646L51.6142,75.678L51.6302,75.6847L51.6461,75.6914L51.678,75.7048L51.6939,75.7115L51.7389,75.7305L71.0887,84.0925Q77.7796,87.0016,82.5667,90.0559Q88.2767,93.6989,92.1171,98.0447Q100.986,108.081,100.986,123.25Q100.986,131.959,97.479,139.626Q93.9923,147.248,87.4649,152.916Q80.8539,158.656,71.8768,161.722Q62.5996,164.891,51.6582,164.891ZM285.471,164.891Q271.435,164.891,259.544,159.872Q247.648,154.852,239.004,145.282Q230.254,135.595,225.642,122.118Q220.908,108.286,220.908,91.5Q220.908,74.7857,225.767,60.907Q230.489,47.4179,239.409,37.6647Q248.213,28.04,260.251,22.9689Q272.306,17.8906,286.408,17.8906Q300.073,17.8906,311.536,23.5007Q320.498,27.8872,327.829,35.5696L329.679,37.5085L316.515,53.2562L314.196,50.8738Q308.75,45.2796,302.863,42.4262Q295.73,38.9687,286.971,38.9688Q277.366,38.9688,269.496,42.5138Q261.788,45.9859,256.256,52.6287Q250.637,59.377,247.665,68.9049Q244.58,78.7932,244.58,90.9375Q244.58,103.374,247.473,113.336Q250.307,123.092,255.753,129.899Q261.178,136.681,268.941,140.196Q276.961,143.828,287.143,143.828Q293.99,143.828,300.112,141.862Q305.358,140.178,308.705,137.488L308.705,106.219L279.689,106.219L279.689,85.8906L330.518,85.8906L330.518,147.301L329.681,148.172Q322.372,155.781,311.15,160.2Q299.235,164.891,285.471,164.891ZM51.6582,161.891C80.1269,161.891,97.9863,144.797,97.9863,123.25C97.9863,103,85.705,93.7188,69.8925,86.8438L50.5488,78.4844C39.9394,74.0312,27.8613,69.0156,27.8613,55.6406C27.8613,43.5781,37.8925,35.9688,53.3457,35.9688C64.8749,35.9688,74.2464,39.9722,82.1597,46.6038C82.9225,47.2431,83.6718,47.9068,84.4082,48.5938L86.3053,46.2613L93.33,37.625C83.8457,27.7812,69.5175,20.8906,53.3457,20.8906C28.5957,20.8906,10.3769,35.9688,10.3769,56.9531C10.3769,76.8125,25.4394,86.4688,38.08,91.8594L57.6113,100.406C70.6425,106.156,80.5019,110.625,80.5019,124.734C80.5019,137.922,69.8925,146.828,51.8457,146.828C38.727,146.828,25.9183,141.06,16.4113,132.064C15.682,131.373,14.9722,130.664,14.2832,129.938L12.3151,132.221L4.04879,141.812C15.7675,154.094,32.3144,161.891,51.6582,161.891ZM147.64,162.891L102.189,20.8906L126.576,20.8906L149.367,96.6933Q150.672,101.18,153.076,109.568Q157.132,123.72,160.102,133.548Q161.231,129.888,162.374,126.009Q163.841,121.027,166.633,111.142Q169.287,101.747,170.767,96.6747L193.343,20.8906L217.169,20.8906L171.929,162.891L147.64,162.891ZM287.143,146.828C296.814,146.828,306.314,143.859,311.705,138.859L311.705,103.219L282.689,103.219L282.689,88.8906L327.518,88.8906L327.518,146.094C318.768,155.203,303.705,161.891,285.471,161.891C249.58,161.891,223.908,135.703,223.908,91.5C223.908,47.4844,250.314,20.8906,286.408,20.8906C305.377,20.8906,317.846,29.4531,325.658,37.6406L318.279,46.4679L316.346,48.7812C315.649,48.0661,314.932,47.3644,314.191,46.6807C307.616,40.6132,299.174,35.9688,286.971,35.9688C259.439,35.9688,241.58,56.9531,241.58,90.9375C241.58,125.312,257.939,146.828,287.143,146.828ZM160.525,142.143C160.912,140.957,161.288,139.788,161.655,138.632C166.186,124.371,169.359,112.207,173.643,97.5312L195.58,23.8906L213.064,23.8906L212.109,26.8906L169.736,159.891L149.83,159.891L107.259,26.8906L106.299,23.8906L124.346,23.8906L146.486,97.5312C150.754,112.204,154.097,124.365,158.509,138.623C158.866,139.778,159.231,140.948,159.604,142.133L159.689,142.406L160.439,142.406Q160.482,142.275,160.525,142.143ZM669.941,41.9066L659.549,47.6985L659.549,28.8906L712.872,28.8906Q712.864,33.8225,712.866,38.4827L698.168,35.1221L697.511,38.0652Q693.366,56.6387,687.608,73.6665Q680.567,60.4042,671.416,44.4744L669.941,41.9066ZM711.091,44.2317C706.925,61.5787,701.756,79.0886,695.424,95.4219C704.346,113.406,712.158,130.656,716.627,143.219L708.447,148.333L705.83,149.969C705.517,149.022,705.186,148.05,704.836,147.052C701.56,137.705,696.709,126.184,691.139,113.881C690.59,112.667,690.033,111.446,689.471,110.219C688.936,111.451,688.395,112.674,687.848,113.888C680.915,129.279,673.023,143.17,664.551,154.46C663.928,155.29,663.302,156.105,662.674,156.906C662.113,156.195,661.42,155.424,660.641,154.636C659.048,153.024,657.094,151.339,655.167,149.943C654.309,149.321,653.456,148.756,652.643,148.281C653.292,147.519,653.938,146.74,654.58,145.943C665.15,132.836,674.685,115.226,682.58,95.7969C675.616,81.4,667.994,66.8388,660.638,53.9604C660.274,53.3236,659.911,52.691,659.549,52.0626C659.413,51.8276,659.278,51.5932,659.143,51.3594L659.549,51.1329L661.763,49.8987L668.814,45.9688C674.514,55.891,680.519,66.6119,686.268,77.5491C686.901,78.7543,687.532,79.9622,688.158,81.1719C688.623,79.8891,689.08,78.6016,689.529,77.31C693.604,65.5921,697.019,53.5345,699.774,41.644C700,40.6677,700.222,39.6925,700.439,38.7188L703.364,39.3875L708.859,40.6438L711.783,41.3125C711.556,42.2849,711.325,43.258,711.091,44.2317ZM713.283,87.1113Q713.887,114.695,715.573,132.095Q709.353,116.823,698.697,95.271Q706.628,74.5542,712.885,49.5185Q712.955,72.1168,713.283,87.1113ZM385.732,66.9035L396.684,51.2589L398.854,52.061Q408.476,55.6163,418.708,60.5148Q429.667,65.7618,435.776,69.947L438.169,71.5868L427.254,88.7194L424.667,86.7999Q419.046,82.6284,408.767,77.2586Q398.552,71.9221,389.283,68.2936L385.732,66.9035ZM390.377,65.5C391.312,65.8659,392.265,66.2506,393.233,66.6517C403.923,71.0829,416.337,77.5153,423.999,82.6626C424.884,83.2574,425.706,83.8352,426.455,84.3906L428.071,81.8544L434.08,72.4219C425.893,66.8125,409.908,59.3438,397.814,54.875L392.146,62.9726L390.377,65.5ZM659.549,58.1149Q669.5,75.735,679.296,95.9007Q673.13,110.884,666.113,123.299Q658.956,135.962,651.373,145.127Q653.794,137.091,655.494,128.003Q659.549,106.326,659.549,77.6094L659.549,58.1149ZM427.133,105.687C416.867,126.363,403.342,149.739,393.908,163.703L403.423,171.02L405.814,172.859C406.333,172.013,406.857,171.154,407.384,170.282C417.807,153.039,429.717,130.943,438.924,111.891L430.851,104.931L428.502,102.906C428.053,103.827,427.596,104.754,427.133,105.687Z" fill-rule="evenodd" fill="#1B0095" fill-opacity="1"/></g></svg>