<svg xmlns="http://www.w3.org/2000/svg" xmlns:xlink="http://www.w3.org/1999/xlink" fill="none" version="1.1" width="744.75" height="172.5" viewBox="0 0 744.75 172.5"><g style="mix-blend-mode:passthrough"><path d="M47.6094,158.891C76.0781,158.891,93.9375,141.797,93.9375,120.25C93.9375,100,81.6562,90.7188,65.8438,83.8438L46.5,75.4844C35.8906,71.0312,23.8125,66.0156,23.8125,52.6406C23.8125,40.5781,33.8438,32.9688,49.2969,32.9688C61.9375,32.9688,71.9844,37.7812,80.3594,45.5938L89.2812,34.625C79.7969,24.7812,65.4688,17.8906,49.2969,17.8906C24.5469,17.8906,6.32812,32.9688,6.32812,53.9531C6.32812,73.8125,21.3906,83.4688,34.0312,88.8594L53.5625,97.4062C66.5938,103.156,76.4531,107.625,76.4531,121.734C76.4531,134.922,65.8438,143.828,47.7969,143.828C33.6719,143.828,19.9062,137.141,10.2344,126.938L0,138.812C11.7188,151.094,28.2656,158.891,47.6094,158.891ZM145.781,156.891L165.688,156.891L209.016,20.8906L191.531,20.8906L169.594,94.5312C164.938,110.484,161.594,123.469,156.391,139.406L155.641,139.406C150.625,123.469,147.078,110.484,142.438,94.5312L120.297,20.8906L102.25,20.8906L145.781,156.891ZM281.422,158.891C299.656,158.891,314.719,152.203,323.469,143.094L323.469,85.8906L278.641,85.8906L278.641,100.219L307.656,100.219L307.656,135.859C302.266,140.859,292.766,143.828,283.094,143.828C253.891,143.828,237.531,122.312,237.531,87.9375C237.531,53.9531,255.391,32.9688,282.922,32.9688C296.5,32.9688,305.422,38.7188,312.297,45.7812L321.609,34.6406C313.797,26.4531,301.328,17.8906,282.359,17.8906C246.266,17.8906,219.859,44.4844,219.859,88.5C219.859,132.703,245.531,158.891,281.422,158.891ZM396.375,11.5C408.641,17.1094,423.891,26.2812,431.703,32.6562L439.703,21.0469C431.891,14.8594,416.078,6.625,404.188,1.39062L396.375,11.5ZM386.328,62.5C398.781,67.375,414.594,75.5938,422.406,81.3906L430.031,69.4219C421.844,63.8125,405.859,56.3438,393.766,51.875L386.328,62.5ZM389.859,160.703L401.766,169.859C412.547,152.281,425.203,128.906,434.875,108.891L424.453,99.9062C414.047,121.234,399.719,146.109,389.859,160.703ZM488.25,0.828125L488.25,43.1406L436.922,43.1406L436.922,56.8906L481.188,56.8906C470.219,88.875,450.5,120.672,429.109,136.375C432.453,139.188,436.922,144.234,439.328,147.609C458.688,131.328,476.344,103.844,488.25,73.3594L488.25,171.547L502.391,171.547L502.391,72.0469C514.109,101.594,530.844,129.281,549.078,145.547C551.5,141.812,556.328,136.938,559.688,134.328C539.406,118.422,520.25,87.75,509.453,56.8906L555.594,56.8906L555.594,43.1406L502.391,43.1406L502.391,0.828125L488.25,0.828125ZM639.469,10.4375L639.469,74.6094C639.469,101.969,637.797,137.969,619.562,163.203C622.359,164.875,627.375,169.891,629.422,172.5C649.516,145.469,652.5,104.031,652.5,74.6094L652.5,22.8906L711.828,22.8906C711.641,113.406,713.125,169.891,731.172,169.891C735.641,170.078,741.219,164.5,744.75,144.156C742.516,142.844,737.875,139.094,735.828,135.906C735.078,146.406,733.406,153.531,731.734,153.531C725.406,153.531,722.984,96.5469,724.469,10.4375L639.469,10.4375ZM696.391,35.7188C693.234,49.8594,689.141,64.2969,684.109,78.1719C677.797,65.9844,671.094,53.9844,664.766,42.9688L655.094,48.3594C662.906,61.8594,671.094,77.4219,678.531,92.7969C670.156,113.406,659.938,131.969,648.594,145.281C652.125,147.344,656.406,151.094,658.625,153.906C668.484,141.344,677.609,125.219,685.422,107.219C692.297,122.219,698.25,136.281,701.781,146.969L712.578,140.219C708.109,127.656,700.297,110.406,691.375,92.4219C698.062,75.1719,703.453,56.6094,707.734,38.3125L696.391,35.7188ZM598.547,0L598.547,35.8906L575.297,35.8906L575.297,48.9219L597.812,48.9219C592.594,73.2969,581.812,101.969,570.844,117.156C573.25,120.719,576.781,126.906,578.281,131.219C585.719,119.969,592.781,102.344,598.547,83.7969L598.547,171.766L611.75,171.766L611.75,73.2969C617.703,83.6094,624.969,96.7344,627.938,103.469L636.312,92.2344C632.781,86.6094,616.594,61.8594,611.75,55.4844L611.75,48.9219L632.594,48.9219L632.594,35.8906L611.75,35.8906L611.75,0L598.547,0Z" fill="#D9FF00" fill-opacity="1"/></g></svg>