<?xml version="1.0" standalone="no"?><!DOCTYPE svg PUBLIC "-//W3C//DTD SVG 1.1//EN" "http://www.w3.org/Graphics/SVG/1.1/DTD/svg11.dtd"><svg t="1646902251944" class="icon" viewBox="0 0 1024 1024" version="1.1" xmlns="http://www.w3.org/2000/svg" p-id="38770" width="128" height="128" xmlns:xlink="http://www.w3.org/1999/xlink"><defs><style type="text/css"></style></defs><path d="M925.52 97.01c-14.32-14.32-35.99-16.53-52.89-7.35 0 0-178.49 72.35-396.65 290.51S90.35 892.15 90.35 892.15c-2.57 4.41-4.04 9.18-4.04 14.69 0 16.16 13.22 29.38 29.38 29.38 5.14 0 10.28-1.47 14.69-4.04 0 0 293.82-167.84 511.97-386s290.51-396.65 290.51-396.65c9.18-16.53 6.98-38.19-7.34-52.52z" fill="#FFC600" p-id="38771"></path><path d="M554.57 400.74c-4.04 0-7.71-1.47-10.65-4.77-5.51-5.88-5.14-15.06 0.73-20.93 13.96-13.22 28.28-26.08 43.7-40.03 6.24-5.51 15.43-4.77 20.57 1.47 5.51 6.24 4.77 15.43-1.47 20.57-15.43 13.59-29.38 26.44-42.97 39.3-2.93 2.92-6.23 4.39-9.91 4.39zM688.26 286.89c-4.41 0-8.81-1.84-11.75-5.88-4.77-6.61-3.67-15.79 2.94-20.57 16.16-12.49 31.95-23.87 46.64-34.16 6.61-4.77 15.79-2.94 20.57 3.67 4.77 6.61 2.94 15.79-3.67 20.57-14.32 10.28-29.75 21.3-45.91 33.42-2.58 2.22-5.88 2.95-8.82 2.95z" fill="#FFEEB2" p-id="38772"></path><path d="M642.35 308.56m-14.69 0a14.69 14.69 0 1 0 29.38 0 14.69 14.69 0 1 0-29.38 0Z" fill="#FFEEB2" p-id="38773"></path><path d="M893.93 128.6l0.37-0.37-1.47 2.57-1.1 2.57c-0.73 1.47-72.72 173.72-280.59 381.96-158.3 158.29-359.93 291.25-452.11 348.54l-63.9 63.9c5.14 5.14 12.49 8.45 20.93 8.45 5.14 0 10.28-1.47 14.69-4.04 0 0 293.82-167.84 511.97-386s290.51-396.65 290.51-396.65c9.55-16.89 6.98-38.56-7.35-52.89l-31.95 31.96z" fill="#FFA100" p-id="38774"></path><path d="M141.76 808.04c-32.69 51.42-51.42 84.1-51.42 84.1-2.57 4.41-4.04 9.18-4.04 14.69 0 16.16 13.22 29.38 29.38 29.38 5.14 0 10.28-1.47 14.69-4.04 0 0 32.69-18.73 84.1-51.42l-72.71-72.71z" fill="#949BA6" p-id="38775"></path><path d="M163.07 912.72c13.59-8.45 30.85-19.1 51.05-31.95l-31.95-31.95c-21.3 13.59-38.56 24.24-51.42 31.59l32.32 32.31z" fill="#717582" p-id="38776"></path><path d="M925.52 97.01c-14.32-14.32-35.99-16.53-52.89-7.35 0 0-50.68 20.57-131.11 72.72l118.26 118.26c52.15-80.43 72.72-131.12 72.72-131.12 9.54-16.52 7.34-38.18-6.98-52.51z" fill="#949BA6" p-id="38777"></path><path d="M923.68 128.23c0 16.16-13.22 29.38-29.38 29.38-4.41 0-8.81-1.1-12.49-2.94-9.92 19.83-27.18 52.15-53.99 94.02l31.95 31.95c52.15-80.43 72.72-131.12 72.72-131.12 3.67-6.61 5.51-14.32 5.51-21.67h-14.32v0.38z" fill="#717582" p-id="38778"></path><path d="M109.81 859.46c-12.49 20.93-19.47 32.69-19.47 32.69-2.57 4.41-4.04 9.18-4.04 14.69 0 16.16 13.22 29.38 29.38 29.38 5.14 0 10.28-1.47 14.69-4.04 0 0 12.12-6.98 32.69-19.47l-53.25-53.25z" fill="#FFC600" p-id="38779"></path><path d="M449.9 281.75l-83 83c22.77 22.77 60.23 22.77 83 0 23.14-22.77 23.14-60.23 0-83zM430.07 427.92l164.17 164.17c14.32-13.22 28.65-26.81 42.6-40.77l-166-166c-13.96 14.32-27.18 28.28-40.77 42.6z" fill="#949BA6" p-id="38780"></path><path d="M563.39 561.24l31.22 31.22c14.32-13.22 28.65-26.81 42.6-40.77l-31.22-31.22c-13.95 13.96-28.28 27.18-42.6 40.77z" fill="#717582" p-id="38781"></path><path d="M894.3 113.54m-14.69 0a14.69 14.69 0 1 0 29.38 0 14.69 14.69 0 1 0-29.38 0Z" fill="#DFE1E4" p-id="38782"></path><path d="M809.83 189.2m-14.69 0a14.69 14.69 0 1 0 29.38 0 14.69 14.69 0 1 0-29.38 0Z" fill="#DFE1E4" p-id="38783"></path><path d="M492.14 447.75m-14.69 0a14.69 14.69 0 1 0 29.38 0 14.69 14.69 0 1 0-29.38 0Z" fill="#DFE1E4" p-id="38784"></path><path d="M249.74 766.18c-2.94 0-5.88-0.73-8.45-2.57-6.61-4.41-8.45-13.59-3.67-20.57 60.97-88.51 122.67-169.31 183.63-239.46 5.14-6.24 14.69-6.61 20.57-1.47 6.24 5.14 6.61 14.69 1.47 20.57-60.23 69.41-121.2 149.11-181.43 236.52-2.57 4.77-7.35 6.98-12.12 6.98z" fill="#FFEEB2" p-id="38785"></path><path d="M935.8 86.73c-18.36-18.36-46.64-22.4-69.78-10.28-7.35 2.94-53.25 22.77-122.67 67.21l-15.43-15.43c-40.03-40.03-105.41-40.03-145.44 0L439.62 271.1l-83 83.37c-5.88 5.88-5.88 15.06 0 20.93 14.32 14.32 33.05 21.3 51.78 21.3s37.46-7.35 51.78-21.3c24.97-24.97 28.28-63.9 9.18-92.55l133.69-133.69c28.65-28.65 75.29-28.65 103.94 0l11.02 11.02c-69.05 46.28-156.82 113.85-252.68 209.71-1.84 1.84-3.31 3.67-5.14 5.51-13.59 13.96-27.18 27.91-40.77 42.6C225.13 627.72 78.96 882.23 77.49 884.8c-3.67 6.61-5.88 14.32-5.88 22.04 0 24.24 19.83 44.07 44.07 44.07 6.61 0 13.59-1.84 19.83-4.77 0.73-0.37 1.47-0.73 2.2-1.1 2.57-1.47 257.09-147.64 467.17-342.29 14.32-13.22 28.65-26.81 42.6-40.77 1.84-1.84 3.67-3.31 5.51-5.14C864.9 344.56 939.46 171.57 946.07 156.15c12.13-22.78 8.09-51.06-10.27-69.42zM439.62 354.47c-13.59 13.59-33.79 16.16-49.95 8.45l58.4-58.4c7.71 16.16 5.14 36.36-8.45 49.95z m417.58-96.96l-92.18-92.18c9.18-5.88 17.63-11.02 25.71-15.79L873 231.8c-4.78 8.08-9.92 16.53-15.8 25.71zM594.97 571.89L450.64 427.55c6.61-6.98 13.59-14.32 20.2-21.3l145.07 145.07c-6.98 6.98-13.96 13.96-20.94 20.57zM216.32 862.03l-55.82-55.82c58.03-89.98 154.99-230.64 270.31-356.99l142.5 142.5C446.96 707.05 306.3 804 216.32 862.03z m-51.05 32.32l-37.09-37.09c4.77-7.71 9.92-16.16 15.79-25.71l46.64 46.64c-9.18 5.88-17.63 11.39-25.34 16.16z m-40.77 24.24c-0.73 0.37-1.1 0.37-1.84 0.73-10.28 5.88-22.04-2.2-22.04-12.49 0-2.57 0.73-5.14 1.84-7.35 0.37-0.37 3.67-6.24 9.55-16.53l26.81 26.81c-6.61 4.43-11.75 7.36-14.32 8.83z m512.34-387.83L491.4 385.32c94.02-93.29 180.7-159.39 248.27-204.2l101.37 101.37c-44.44 67.57-110.54 154.25-204.2 248.27z m283.17-388.21c-0.37 0.73-0.73 1.1-0.73 1.84-0.37 0.73-9.55 23.14-30.85 60.97l-71.25-71.25c37.83-21.3 60.23-30.48 60.97-30.85 0.73-0.37 1.1-0.37 1.84-0.73 4.41-2.57 9.55-3.67 14.32-3.67 7.71 0 15.06 2.94 20.93 8.45 9.17 9.53 11.01 23.86 4.77 35.24z" fill="#090418" p-id="38786"></path><path d="M366.9 281.75m-14.69 0a14.69 14.69 0 1 0 29.38 0 14.69 14.69 0 1 0-29.38 0Z" fill="#090418" p-id="38787"></path><path d="M408.4 240.25m-14.69 0a14.69 14.69 0 1 0 29.38 0 14.69 14.69 0 1 0-29.38 0Z" fill="#090418" p-id="38788"></path><path d="M449.9 198.75m-14.69 0a14.69 14.69 0 1 0 29.38 0 14.69 14.69 0 1 0-29.38 0Z" fill="#090418" p-id="38789"></path><path d="M678.34 593.19m-14.69 0a14.69 14.69 0 1 0 29.38 0 14.69 14.69 0 1 0-29.38 0Z" fill="#090418" p-id="38790"></path><path d="M719.48 551.32m-14.69 0a14.69 14.69 0 1 0 29.38 0 14.69 14.69 0 1 0-29.38 0Z" fill="#090418" p-id="38791"></path><path d="M626.19 622.94C503.16 737.16 366.9 833.75 274.71 894.35c-6.61 4.41-8.81 13.59-4.04 20.2 2.94 4.41 7.35 6.61 12.12 6.61 2.94 0 5.51-0.73 8.08-2.57 93.29-61.33 231.01-158.66 355.52-274.72 5.88-5.51 6.24-14.69 0.73-20.93-5.87-5.14-15.05-5.51-20.93 0z" fill="#090418" p-id="38792"></path></svg>