<svg xmlns="http://www.w3.org/2000/svg" pointer-events="none" class="leaflet-zoom-animated" width="1452" height="838" viewBox="-121 -70 1452 838" style="transform: translate3d(-121px, -70px, 0px);"><g><path class="leaflet-interactive" stroke="red" stroke-opacity="1" stroke-width="2" stroke-linecap="round" stroke-linejoin="round" stroke-dasharray="1,6" fill="none" d="M371 321L373 319L371 317L371 309L365 306L363 308L362 306"/><path class="leaflet-interactive" stroke="blue" stroke-opacity="1" stroke-width="0.7" stroke-linecap="round" stroke-linejoin="round" fill="none" d="M689 513L689 513M688 513L688 513M693 514L693 514M685 515L685 515M690 517L690 517M682 461L680 463L679 462L679 464L676 463L674 465L671 464L669 466L659 468L655 471L655 473L658 476L656 478L652 478L650 472L652 468L651 467L637 467M643 466L643 466M663 481L663 481M663 481L663 481M663 481L663 481M663 481L663 481M663 480L663 480M663 480L663 480M670 467L670 467M675 465L675 465M676 465L676 465M676 465L676 465M676 465L675 466L676 465M676 465L676 465M677 566L677 566M677 566L677 566M677 566L677 566M677 566L677 566M678 465L678 465M682 462L682 462M682 461L682 461M682 461L682 461M682 461L682 461M682 461L682 461M682 461L682 461M682 461L682 461M687 461L684 460L686 458L684 459L683 456L682 461M683 463L683 463M684 458L684 458M685 461L685 461M685 461L685 461M685 461L685 461M686 461L686 461M686 464L686 464M688 460L687 461M687 458L687 458M708 450L708 452L705 455L699 455L697 457L695 455L692 458L690 456L689 459L689 457L687 458M687 458L687 458M687 458L687 458M687 459L687 459M687 458L688 458M687 458L687 458M688 458L688 458M688 458L688 458M688 460L688 460M688 459L688 459M688 458L688 458M688 458L688 460M688 459L688 459M688 458L688 458M688 458L688 458M688 459L688 459M688 458L688 458M688 458L688 458M688 459L688 459M688 458L688 458M688 459L688 459M688 459L688 459M688 459L688 459M688 459L688 459M688 458L688 458M688 460L688 460M688 460L688 460M688 459L688 460M688 460L688 460M688 460L688 460M688 460L688 460M688 460L688 460M688 459L688 459M688 459L688 459M688 460L688 460M688 459L688 459M688 459L688 459M688 459L688 459M688 459L688 459M688 459L688 459M688 459L688 459M688 459L688 459M688 460L688 459M688 460L688 460M688 460L688 460M688 460L688 460M688 460L688 460M688 460L688 460M688 460L688 460M688 460L688 460M688 459L688 459M688 459L688 459M688 459L688 459M688 459L688 459M689 459L689 459M697 457L697 457M698 457L698 457M700 456L700 456M700 456L700 456M708 450L708 450M708 450L708 450M708 450L708 450M708 450L708 450M708 450L708 450M708 450L708 450M708 450L708 450M718 440L719 443L713 449L708 450M709 449L709 449M711 451L711 451M718 444L718 444M718 440L718 440M718 440L718 440M718 440L719 441L718 440M721 440L718 440M719 442L719 442M719 442L719 442M721 441L721 441M721 441L721 441M721 441L720 442L721 441M721 441L721 441M721 440L721 440M721 440L721 440M721 440L721 440M723 440L721 440M721 441L721 441M721 441L721 441M723 440L723 440M726 437L724 437L723 440M723 440L723 440M723 440L723 440M723 440L723 440M723 439L723 439M725 435L725 435M726 436L726 436M726 437L726 437M732 433L727 432L729 434L726 435L727 436L725 434L726 437M727 433L727 433M729 433L729 433M730 433L730 433M730 433L730 433M730 433L730 433M730 430L730 430M730 433L730 433M730 431L730 431M731 431L731 431M731 433L731 433M731 430L731 430M731 434L731 434M731 431L731 431M731 431L731 431M732 433L732 433M732 433L732 433M732 433L732 433M732 433L732 433M743 411L741 410L734 420L735 421L733 423L733 420L733 422L731 422L733 425L730 426L731 429L729 431L731 431L730 432L732 430L732 433M732 425L732 425M732 431L732 431M732 432L732 432M733 424L733 424M733 424L733 424M733 426L733 426M733 426L733 426M733 426L733 426M733 426L733 426M734 428L734 428M734 425L734 425M734 425L734 425M740 413L740 413M740 418L740 418M740 418L740 418M740 418L740 418M742 285L740 285L737 291L731 293L725 302L722 301L721 304L719 301L717 301L715 309L717 309L718 312L726 313L728 316L726 316L725 318L728 322L732 322L732 320L736 317L735 316L741 315L745 317M769 291L769 293L766 295L765 294L758 296L743 306L742 304L747 302L747 300L743 298L752 288L748 283L744 283L742 285M743 411L743 411M750 399L747 400L747 406L744 409L743 408L743 411M743 411L743 411M743 411L743 411M743 412L743 412M745 317L745 319L755 319L754 324L742 327L741 330L739 330L739 332L736 333L736 331L736 333L727 343L727 345L737 352L741 362L741 366L749 373L749 375L744 373L742 375L744 377M744 386L744 386M744 377L749 381L750 385L747 383L742 386L745 387L749 392L751 392L750 393M745 318L745 317M746 317L746 317M746 317L746 317M746 317L746 317M746 317L746 317M746 317L746 317M746 318L746 318M746 318L746 318M746 318L746 318M746 408L746 408M746 409L746 409M746 409L746 409M746 409L746 409M746 409L746 409M746 389L746 389M748 404L748 404M750 393L748 394L750 395L750 399M750 389L750 389M750 393L750 393M750 393L750 393M750 393L750 393M750 325L750 325M751 391L751 391M751 391L751 391M751 391L751 391M751 391L751 391M751 391L751 391M751 391L751 391M751 391L751 391M751 391L751 391M751 318L751 318M753 391L753 391M753 391L753 391M753 391L753 391M753 391L753 391M754 390L754 390M754 389L754 389M754 392L754 392M754 389L754 389M758 298L758 298M758 298L758 298M759 298L759 298M759 296L759 296M642 486L647 481L659 478L662 482L659 485L657 491L650 495L642 493L642 486M646 471L646 471M649 585L650 583L653 584L651 583L649 585M653 581L654 580L653 581M657 579L658 578L657 579M657 471L655 471L657 471M658 471L657 470L658 471M658 472L658 472M665 505L666 504L665 505M666 583L666 583M666 581L666 581M666 580L666 580M666 512L666 512M666 574L667 575L666 574M667 582L667 582M667 513L667 513M669 579L669 579M669 511L669 511M671 505L672 506L671 505M673 511L673 511M673 514L674 513L673 514M673 510L674 509L673 510M673 567L673 567M673 599L674 598L673 599M673 597L674 598L673 597M673 466L674 465L673 466M674 573L674 573M674 603L674 603M674 599L674 599M674 601L674 601M674 603L674 603M677 604L677 604M677 484L677 484M679 579L680 578L679 579M682 461L682 461M682 572L683 571L682 572M683 583L684 582L683 583M684 487L684 487M684 580L685 579L684 580M684 583L689 580L690 581L688 583L684 583M685 573L685 573M685 572L686 573L685 572M687 561L687 561M689 556L689 556M689 557L689 557M689 579L690 578L689 579M690 573L691 572L690 573M690 564L691 563L690 564M690 552L691 551L690 552M691 583L691 583M691 551L691 551M691 560L691 560M691 555L692 554L691 555M691 512L691 512M692 586L692 586M692 580L692 580M693 556L693 556M693 584L693 584M695 576L696 577L695 576M696 531L696 531M697 564L697 564M697 576L698 575L697 576M700 566L701 565L700 566M701 471L701 471M701 470L702 471L701 470M701 569L701 569M702 563L702 563M705 560L707 560L705 560M707 559L707 559M707 511L707 511M708 473L708 475L708 473M711 450L709 450L711 450M712 558L712 558M712 554L712 554M716 557L716 557M729 435L730 434L729 435M731 449L730 450L731 449M731 422L732 421L731 422M734 452L734 449L740 439L745 434L747 434L749 436L749 441L746 447L746 451L741 458L741 464L736 458L734 452M736 419L736 419M742 410L743 409L742 410M747 375L750 377L746 377L743 374L744 373L747 375M745 457L745 457M746 462L746 462M748 379L746 377L748 379M748 378L749 379L748 378M749 390L748 391L749 390M749 380L749 380M749 388L749 388M751 388L752 389L751 388M751 394L750 393L751 394M752 390L752 392L749 389L752 390M752 392L752 392M752 394L751 393L752 394M752 389L753 388L752 389M752 392L753 391L752 392M752 387L752 387M753 391L753 391M758 297L758 297M759 303L759 303M760 430L762 430L760 430M763 428L764 429L763 428M770 428L770 428M715 520L716 521L715 520M671 612L671 612M670 613L670 613M671 613L671 613"/><path class="leaflet-interactive" stroke="#F2F7F7" stroke-opacity="1" stroke-width="0.2" stroke-linecap="round" stroke-linejoin="round" stroke-dasharray="1,10" fill="none" d="M490 332L481 329L471 329L463 331L460 336L459 335L457 337L454 335L445 340L436 339L436 337L434 336L432 336L427 341L414 339L411 347L409 349L404 350M554 367L551 368L552 369L550 372L546 372L547 375L543 373L542 376L540 374L537 374L536 371L534 369L533 370L534 369L531 368L530 366L524 368L495 360L489 352L491 351L491 344L489 344L488 341L491 335L487 333L490 332M512 303L493 308L494 311L497 310L496 316L498 316L503 322L498 325L498 327L501 329L499 333L493 331L491 333L490 332M583 350L587 352L591 349L588 347L588 345L592 341L591 340L595 338L594 336L597 333L593 325L594 322L588 316L587 317L582 315L580 311L579 312L574 308L574 310L572 310L564 302L561 304L559 302L557 305L549 301L549 307L547 307L546 310L542 312L538 309L530 309L527 305L524 306L522 304L518 304L517 301L512 303M544 263L540 266L542 269L541 272L535 275L532 274L524 281L522 285L516 286L514 296L511 300L512 303M607 319L600 315L600 309L604 307L607 302L605 300L606 299L600 299L597 302L592 300L589 301L589 304L587 306L580 303L579 299L569 294L575 286L574 283L566 283L566 285L565 284L562 286L562 284L559 286L559 283L556 281L554 277L554 271L550 262M587 357L586 362L582 360L583 365L577 367L572 363L570 365L564 362L560 352L556 351L554 352L554 354L552 354L554 358L552 362L553 363L551 364L554 367M566 398L564 384L561 379L564 378L557 368L554 367M558 408L558 406L562 408L562 400L563 402L566 398M615 412L613 408L610 411L608 409L608 403L604 403L604 406L601 407L600 412L596 416L597 424L594 426L594 424L587 427L587 425L585 425L585 421L578 411L575 412L573 409L574 407L572 404L570 402L568 404L568 408L566 406L566 398M583 350L579 350L583 356L587 357M617 363L616 366L610 366L607 363L608 360L606 356L599 355L596 350L591 353L593 357L588 362L587 357M634 315L631 312L625 310L629 303L627 299L623 300L623 302L622 301L620 305L620 313L618 316L607 319M607 319L610 319L610 321L612 321L616 325L616 335L619 336L619 338L621 338L624 341L624 336L628 336L629 333L624 328L626 326L626 322L631 322M615 412L614 415L611 416L608 414L602 418L603 423L610 422L607 431L611 435L609 439M609 439L609 441L613 441L615 445L620 444L622 446L621 450L620 449L617 452M649 427L648 430L645 429L644 430L646 430L644 432L640 432L637 435L632 434L631 431L621 439L615 436L611 440L609 439M624 405L622 403L618 404L618 406L624 410L622 412L615 412M631 322L631 324L635 326L636 325L642 330L642 340L635 340L634 344L630 344L628 342L626 343L624 347L627 350L625 350L626 352L624 354L626 357L620 357L619 360L621 361L619 364L617 363M641 370L635 370L634 368L633 369L633 367L630 368L629 365L622 366L622 364L620 364L618 366L617 363M647 405L646 408L644 408L643 405L642 406L642 404L640 403L640 399L636 401L635 398L633 398L631 402L630 401L625 405L625 403L624 405M624 405L623 401L619 400L619 398L615 396L619 392L617 389L621 387L623 389L626 388L626 390L629 391L633 383L636 384L641 376L641 374L639 373M629 390L629 390M629 390L629 390M631 322L631 318L634 315M662 299L662 297L658 300L656 300L655 298L655 300L651 302L647 307L645 310L645 314L644 313L642 317L637 317L637 315L634 315M639 373L641 370M641 370L650 375M650 375L655 379L654 383L648 386L640 386L642 389L640 393L641 394L642 392L647 399M647 399L647 405M685 400L683 400L682 393L678 396L678 393L672 395L669 392L661 390L657 390L657 394L649 394L647 399M649 427L649 425L647 425L649 417L644 418L644 416L647 414L648 415L649 412L647 405M669 439L666 439L664 435L662 437L661 436L665 429L663 429L664 425L658 424L655 428L653 426L651 428L649 427M661 360L659 362L657 360L649 361L652 364L654 364L653 367L651 366L649 368L650 375M651 467L651 468M656 463L654 463L651 467M652 479L653 479M654 479L656 478M656 347L655 344L658 338L656 324L660 317L657 311L661 307L660 306L663 300L662 299M656 347L661 357L661 360M656 347L666 345L668 342L670 343L670 341L676 341L682 337L683 330M656 463L656 461L658 461L659 458L665 454L665 448L669 446L669 439M657 478L658 477M696 378L694 376L691 377L690 374L685 375L683 369L670 369L667 366L666 367L661 360M686 285L686 287L683 287L682 289L679 288L676 289L675 291L673 289L669 297L666 296L662 299M669 439L671 435L676 437L679 432L685 432M693 332L683 330M683 330L681 326L684 324L683 323L686 316L681 309L684 305L683 303L688 302L690 298L689 295L685 292L686 291M685 432L685 427L687 426L685 426L686 422L684 421L685 419L682 414L683 410L686 409L685 408L687 406L687 402L685 400M702 393L701 394L697 392L696 394L694 394L695 395L692 396L693 397L687 397L685 400M685 432L685 434L691 433L691 435L687 439L689 441L696 438L699 440L701 437M686 291L686 291M686 291L690 289L688 289L688 286L686 285M709 266L707 272L701 272L696 274L696 276L692 275L693 271L690 270L684 277L686 285M695 331L693 332M693 332L693 332M697 332L695 331M703 347L703 349L706 350L707 353L704 356L699 352L699 357L697 357L696 360L694 362L693 361L692 363L695 365L695 367L701 368L701 374L699 374L696 378M702 393L702 389L700 387L700 383L702 381L696 378M717 310L713 315L707 315L705 318L703 318L703 320L701 320L701 322L696 327L697 332M703 347L697 347L697 345L695 345L695 343L692 342L702 333L696 336L697 332M697 368L697 368M699 297L699 297M713 290L711 288L712 286L713 287L713 285L709 285L707 281L702 286L699 287L701 289L700 291L697 292L697 295L699 297M699 297L699 297M699 297L700 298M700 298L700 298M700 298L705 298M711 449L708 439L701 437M701 437L700 434L705 426L706 419L710 418L710 413L713 410L716 411L721 407M719 397L718 395L714 395L713 392L711 392L708 395L707 394L709 392L707 390L704 393L702 393M704 347L703 347M712 347L711 349L711 347L708 344L706 344L704 347M731 380L730 381L727 379L723 379L725 377L721 373L723 369L722 366L726 368L727 365L725 363L721 365L719 361L717 361L719 356L715 356L716 354L714 352L710 352L707 348L704 347M705 298L707 296L708 297M708 302L708 302M708 306L708 302M708 302L708 297M708 306L708 306M715 307L708 306M708 297L708 297M708 297L708 297M708 297L708 297M709 296L708 297M709 296L711 296L711 292M711 292L708 293L709 296M727 279L720 278L720 270L718 270L718 267L716 265L709 266M709 266L709 266M711 449L712 450M712 291L711 292M712 347L712 347M728 342L725 343L721 347L721 349L719 349L717 346L715 348L712 347M713 290L712 291M713 451L713 451M715 292L713 290M714 294L714 294M714 294L715 292M714 294L714 296L717 298M715 292L715 292M715 292L715 292M715 292L715 292M715 292L715 292M717 298L717 298M717 298L716 300L718 301M719 397L718 400L721 403L721 407M719 397L725 391L725 389L729 387L728 386L731 380M737 417L736 415L733 416L730 412L727 415L723 409L724 408L721 407M727 279L729 277L729 271L727 269L729 267L733 270L735 274L739 269L747 266L750 263L751 264L754 262L759 262L760 260L763 259L763 256M732 293L732 290L729 287L727 287L727 285L724 284L727 279M728 342L728 343M741 381L738 384L731 380M737 417L737 417M739 418L740 418M740 309L742 309M749 376L744 373L744 376L741 381M744 385L741 381M745 385L746 385M759 224L759 219L763 218L762 215L761 217L757 217L757 215L753 211L754 208L760 203L762 203L768 196L769 201L770 200L772 189L776 188L776 178L782 165L776 157L773 159L773 161L758 161L755 152L756 149L754 149L751 146L748 149L744 145L748 139L746 135M746 385L747 384M748 384L749 384M750 383L751 383M753 383L754 383M755 382L756 382M798 248L795 247L793 242L790 243L791 238L787 235L782 236L779 234L779 232L769 233L764 223L759 224M759 224L756 226L756 230L753 227L750 228L748 226L747 229L750 231L752 236L750 238L752 246L754 247L759 243L762 252L762 254L760 254L761 256L763 256M763 256L764 255L768 258L770 262L772 259L773 260L775 268L777 270L778 269L776 271L776 275L778 275L780 283M825 255L823 256L817 253L816 249L814 251L814 249L811 251L810 250L808 254L806 254L801 247L798 248M620 339L621 338L620 339"/><path class="leaflet-interactive" stroke="gray" stroke-opacity="1" stroke-width="0.7" stroke-linecap="round" stroke-linejoin="round" fill="none" d="M682 462L682 462M687 458L685 458L684 461L689 461L689 459L687 458"/><path class="leaflet-interactive" stroke="red" stroke-opacity="1" stroke-width="2" stroke-linecap="round" stroke-linejoin="round" fill="none" d="M362 306L360 298L363 297L362 294L365 291L366 292L369 289L371 289L371 287L374 288L376 286L377 289L383 289L388 281L393 282L406 273L413 271M402 373L399 370L399 368L402 365L404 369L406 367L406 363L401 357L401 353L404 350L398 346L396 338L391 339L383 334L382 335L379 332L380 329L378 326L376 326L373 323L371 324L367 322L369 320L371 321M402 373L402 373M617 452L614 451L612 455L607 455L605 458L602 456L600 456L597 459L594 456L592 456L591 459L586 458L585 461L587 464L587 470L583 470L581 465L579 467L575 467L572 464L572 462L566 462L568 458L567 456L569 454L564 452L562 446L564 444L558 444L553 446L554 436L562 428L561 427L563 422L563 415L560 412L560 414L558 412L558 408L554 406L554 404L551 407L551 411L547 411L543 407L535 408L535 410L527 413L521 419L509 420L508 414L506 414L503 409L501 411L499 409L491 407L485 413L484 417L482 414L483 409L481 408L479 410L474 411L470 411L465 408L463 410L461 408L461 410L458 407L455 407L453 403L450 404L445 399L446 398L444 397L441 399L436 394L434 394L434 392L430 391L429 388L427 387L423 387L421 391L420 388L412 385L408 381L406 382L402 378L402 373M413 271L413 264L417 261L415 260L418 259L418 255L415 249L415 242L411 240L413 237L417 237L426 233L428 235L433 235L430 232L430 230L436 214M436 214L436 212L443 215L452 216L456 214L458 211L456 203L458 198L462 198L465 196L467 192L466 191L468 189L474 189L476 196L481 199L481 201L485 203L488 202L491 205L492 204L495 207L498 215L500 216L501 221L499 223L500 226L498 230L500 236L501 235L503 237L504 236L510 238L520 238L530 245L536 246L535 249L537 249L538 254L544 263L550 262L564 265L580 264L585 265L592 270L593 269L598 272L608 273L609 275L613 276L616 273L633 266L643 267L656 263L662 256L666 255L669 252L665 246L668 237L672 237L676 240L682 241L686 239L690 233L698 233L704 228L708 222L712 222L713 219L715 220L724 217L726 219L733 218L731 212L722 203L717 202L713 206L704 204L701 207L698 204L698 201L700 200L707 180M637 467L627 463L625 460L627 456L625 454L620 455L617 452M640 596L639 587M648 512L651 516L652 521M656 545L654 553M668 617L676 614M698 586L703 580M707 180L715 184L721 180M721 180L728 177L727 173L730 169L729 167L732 164L734 160L733 159L740 151L739 146L737 144L734 144L740 136L762 132L767 135L768 134L770 137L776 137L778 139L779 138L779 141L781 141L782 145L785 148L784 150L786 151L785 152L788 157L787 158L789 159L788 162L790 162L789 165L792 168L793 175L795 175L794 180L797 184L802 183L806 186L810 185L816 192L820 192L818 195L821 199L819 201L820 203M722 556L725 547M726 514L726 523M734 489L729 497M749 465L743 473M754 450L756 440M820 203L823 207L829 207L834 206L836 204L835 203L836 204L839 201L841 202L848 198L855 198L851 202L852 207L847 212L848 213L845 220L846 222L838 237L829 234L826 238L822 239L825 249L823 261L818 263L818 265L816 261L813 260L812 267L809 266L806 271L798 271L801 276L799 278L792 277L789 273L781 283L769 291M820 203L820 203"/><path class="leaflet-interactive" stroke="#333" stroke-opacity="1" stroke-width="0.5" stroke-linecap="round" stroke-linejoin="round" stroke-dasharray="1,6" fill="#fff" fill-opacity="0.2" fill-rule="evenodd" d="M712 286L711 289L713 291L708 292L709 295L707 297L706 296L704 298L700 298L697 295L697 293L701 289L699 287L702 286L707 281L707 283L709 285L713 285L713 287z"/><path class="leaflet-interactive" stroke="#333" stroke-opacity="1" stroke-width="0.5" stroke-linecap="round" stroke-linejoin="round" stroke-dasharray="1,6" fill="#fff" fill-opacity="0.2" fill-rule="evenodd" d="M716 299L714 299L718 301L716 302L717 303L715 307L707 305L709 301L708 296L711 295L711 291L714 290L716 292L714 292L714 296L717 297L716 299zM716 299L716 299z"/><path class="leaflet-interactive" stroke="#333" stroke-opacity="1" stroke-width="0.5" stroke-linecap="round" stroke-linejoin="round" stroke-dasharray="1,6" fill="#fff" fill-opacity="0.2" fill-rule="evenodd" d="M713 286L706 281L704 283L705 284L703 284L700 287L701 290L697 292L697 295L700 298L704 298L706 296L709 299L707 305L715 307L715 309L717 309L716 311L712 315L708 315L705 318L704 317L703 320L701 320L701 322L696 327L697 332L695 331L693 333L684 330L681 327L684 324L683 323L686 316L682 308L684 306L683 303L688 302L690 298L689 295L685 292L690 289L688 289L688 286L684 281L684 277L687 276L689 270L691 270L693 272L692 275L695 276L700 272L702 274L705 271L706 272L709 270L709 266L713 266L716 264L718 268L717 269L719 271L720 270L720 278L727 279L725 281L725 284L728 287L730 287L732 293L728 295L728 298L724 302L723 301L722 304L719 303L719 301L717 299L716 300L717 297L714 296L714 292L716 292L711 289L711 287L713 286zM711 292L711 296L709 296L708 293L711 292zM716 299L714 299L716 299zM724 301L724 302z"/><path class="leaflet-interactive" stroke="#333" stroke-opacity="1" stroke-width="0.5" stroke-linecap="round" stroke-linejoin="round" stroke-dasharray="1,6" fill="#fff" fill-opacity="0.2" fill-rule="evenodd" d="M686 285L688 289L690 289L685 292L689 294L690 297L689 300L685 302L682 307L682 311L685 313L686 316L683 322L684 323L681 327L683 329L682 337L677 341L670 340L669 343L660 347L656 347L655 344L658 337L656 323L660 317L657 311L661 307L661 303L663 300L662 299L666 296L667 297L673 289L675 291L679 288L682 289L686 287L686 285z"/><path class="leaflet-interactive" stroke="#333" stroke-opacity="1" stroke-width="0.5" stroke-linecap="round" stroke-linejoin="round" stroke-dasharray="1,6" fill="#fff" fill-opacity="0.2" fill-rule="evenodd" d="M662 299L662 297L658 300L654 298L655 299L653 301L652 300L653 301L646 308L646 313L644 313L642 317L638 317L635 314L634 315L631 312L625 310L629 303L627 299L623 300L623 302L622 301L620 305L620 313L618 316L607 319L600 315L600 309L604 307L607 302L605 300L606 299L603 298L597 302L592 300L589 301L589 304L587 306L580 303L579 299L577 299L571 294L568 294L573 290L575 286L574 283L566 283L566 285L565 284L562 286L562 284L559 286L559 283L556 281L554 277L554 271L550 262L564 265L585 265L589 269L593 269L598 272L608 273L609 275L613 276L616 273L633 266L643 267L656 263L662 256L666 255L669 252L665 246L668 237L672 237L676 240L682 241L686 239L691 233L698 233L704 228L708 222L712 222L713 219L715 220L718 218L725 217L727 219L733 219L731 212L722 203L717 202L713 206L704 204L701 207L698 204L698 202L700 200L707 180L715 184L722 179L728 177L729 174L727 174L730 169L729 167L732 164L734 160L733 159L740 152L739 145L735 145L734 142L742 135L746 135L748 139L743 145L746 146L747 149L749 149L752 146L756 150L755 153L758 162L773 161L775 157L782 164L780 172L775 179L776 187L772 189L770 202L768 196L757 207L754 208L753 211L757 215L757 217L761 217L761 215L762 217L763 216L763 218L758 219L759 225L756 226L756 230L753 227L750 228L748 226L747 229L750 231L752 236L750 238L752 246L754 247L759 243L762 252L762 254L760 254L763 257L763 259L760 260L760 262L758 263L753 262L753 264L751 263L748 266L744 266L741 269L740 268L734 274L734 272L729 267L727 269L729 271L729 276L727 279L720 278L720 270L719 271L717 269L718 268L716 264L710 266L707 272L701 272L696 274L696 276L693 275L693 272L691 270L689 270L687 276L684 277L686 287L683 287L682 289L676 289L675 291L673 289L668 297L665 296L665 298L662 299z"/><path class="leaflet-interactive" stroke="#333" stroke-opacity="1" stroke-width="0.5" stroke-linecap="round" stroke-linejoin="round" stroke-dasharray="1,6" fill="#fff" fill-opacity="0.2" fill-rule="evenodd" d="M730 268L734 272L734 274L744 266L748 266L754 262L759 262L760 260L763 259L764 255L767 258L768 257L768 260L770 262L772 259L773 260L775 268L777 270L778 269L776 271L776 275L778 275L777 276L780 279L780 283L770 290L767 295L760 295L743 306L743 304L745 302L746 303L746 301L747 302L747 300L743 298L752 287L748 283L744 283L738 288L737 291L733 293L730 287L728 287L725 284L729 277L729 271L727 269L729 267L730 268zM755 300L755 300zM752 301L753 301zM755 300L755 301zM756 303L756 302zM758 297L757 297zM754 300L754 301zM740 287L740 287zM758 298L758 298zM759 303L759 302zM763 295L764 295z"/><path class="leaflet-interactive" stroke="#333" stroke-opacity="1" stroke-width="0.5" stroke-linecap="round" stroke-linejoin="round" stroke-dasharray="1,6" fill="#fff" fill-opacity="0.2" fill-rule="evenodd" d="M783 281L779 283L780 279L777 276L778 275L776 275L776 271L778 269L777 270L775 268L773 260L772 259L769 262L769 259L767 257L764 255L760 255L762 253L759 243L752 247L750 240L752 236L747 229L748 226L750 228L753 227L756 230L756 226L760 223L764 223L766 224L766 228L770 233L773 232L775 234L779 232L781 236L789 236L791 238L790 243L793 242L797 248L799 248L798 245L801 243L802 248L806 254L808 254L808 252L813 249L815 251L817 249L817 253L825 256L824 259L818 263L819 266L816 263L816 261L813 260L812 267L809 266L806 271L798 271L801 276L799 278L792 277L789 274L790 273L786 275L787 276L784 280z"/><path class="leaflet-interactive" stroke="#333" stroke-opacity="1" stroke-width="0.5" stroke-linecap="round" stroke-linejoin="round" stroke-dasharray="1,6" fill="#fff" fill-opacity="0.2" fill-rule="evenodd" d="M762 224L759 224L758 220L763 218L763 216L762 217L762 215L760 215L761 216L759 218L757 217L757 215L753 211L754 208L762 203L768 196L770 202L772 190L776 188L775 180L782 165L776 157L773 159L773 161L758 161L755 154L756 149L754 149L751 146L748 149L744 145L748 139L746 135L747 134L763 132L767 135L768 134L770 137L776 137L778 139L779 138L779 141L781 141L782 145L785 148L784 150L786 151L785 152L788 156L788 162L790 162L789 165L792 168L793 175L795 175L794 180L797 184L804 183L804 185L810 185L816 192L820 192L818 195L821 199L819 201L823 207L834 206L836 204L835 203L836 204L839 201L841 202L848 198L855 198L851 202L852 207L847 212L848 213L845 220L846 222L839 233L839 237L838 238L829 234L826 238L823 238L822 240L825 249L825 255L817 253L817 249L815 251L813 249L809 251L808 254L806 254L802 248L801 243L798 246L799 247L796 248L793 242L790 243L791 238L789 236L781 236L779 232L775 234L773 232L770 233L766 229L766 225L763 223z"/><path class="leaflet-interactive" stroke="#333" stroke-opacity="1" stroke-width="0.5" stroke-linecap="round" stroke-linejoin="round" stroke-dasharray="1,6" fill="#fff" fill-opacity="0.2" fill-rule="evenodd" d="M741 381L743 377L745 377L750 382L745 385L741 382zM749 376L749 378L743 375L744 373L747 375zM748 379L746 377L748 379zM748 378L750 379L748 379zM747 377L747 377zM749 380L749 380zM749 379L749 380z"/><path class="leaflet-interactive" stroke="#333" stroke-opacity="1" stroke-width="0.5" stroke-linecap="round" stroke-linejoin="round" stroke-dasharray="1,6" fill="#fff" fill-opacity="0.2" fill-rule="evenodd" d="M712 348L717 347L720 349L727 342L727 344L730 347L736 350L741 362L741 366L749 373L749 375L744 373L743 379L738 384L732 380L730 381L728 379L724 379L723 378L725 377L721 373L723 369L722 366L726 368L727 365L725 363L721 365L719 361L717 361L719 356L715 356L716 354L714 352L710 352L704 346L708 344L712 348z"/><path class="leaflet-interactive" stroke="#333" stroke-opacity="1" stroke-width="0.5" stroke-linecap="round" stroke-linejoin="round" stroke-dasharray="1,6" fill="#fff" fill-opacity="0.2" fill-rule="evenodd" d="M721 407L721 403L718 400L718 398L725 391L724 390L729 387L727 385L729 385L732 380L738 384L741 381L744 384L742 386L745 387L749 392L751 392L748 394L750 395L750 399L747 400L747 406L744 409L743 408L743 411L741 410L737 417L736 415L732 416L730 412L728 415L725 414L723 406L721 407zM751 391L749 389L752 391zM751 389L751 389zM752 394L751 394zM753 384L753 384zM751 388L752 389L750 388zM752 389L753 388L752 389zM750 399L750 399zM753 392L753 392zM753 387L753 387zM748 402L749 402zM752 392L751 393zM748 399L748 400zM749 384L749 385zM749 405L749 405zM751 394L750 393L751 394zM753 391L753 391zM754 385L754 385zM749 405L749 405zM753 391L753 391zM750 389L750 389zM748 391L749 391zM742 414L742 414zM749 398L750 399zM750 393L750 393zM749 388L750 388zM749 390L749 390zM751 391L751 391zM752 394L752 393zM743 411L743 411zM752 388L752 389zM752 392L752 392zM756 384L756 384zM742 410L743 410zM743 410L744 409zM753 391L753 391zM756 384L756 384zM751 391L752 391zM750 391L750 392zM742 410L742 409zM753 392L753 392zM751 391L751 391z"/><path class="leaflet-interactive" stroke="#333" stroke-opacity="1" stroke-width="0.5" stroke-linecap="round" stroke-linejoin="round" stroke-dasharray="1,6" fill="#fff" fill-opacity="0.2" fill-rule="evenodd" d="M706 353L703 347L705 347L713 353L714 352L716 354L715 355L718 356L717 361L719 361L721 365L725 363L727 365L726 368L722 366L723 369L720 373L722 375L723 374L723 376L725 376L723 378L724 379L728 379L730 381L731 380L730 384L727 385L729 387L726 388L724 390L725 391L719 397L718 395L714 395L713 392L711 392L708 395L707 394L709 392L707 390L704 393L702 393L702 389L700 387L700 383L702 381L696 378L697 375L701 374L701 368L697 368L695 364L692 363L696 361L699 352L703 356L707 353zM724 377L724 377zM707 394L707 394zM697 368L697 368z"/><path class="leaflet-interactive" stroke="#333" stroke-opacity="1" stroke-width="0.5" stroke-linecap="round" stroke-linejoin="round" stroke-dasharray="1,6" fill="#fff" fill-opacity="0.2" fill-rule="evenodd" d="M726 437L724 437L722 441L718 440L719 443L713 449L710 448L708 439L705 440L706 439L704 437L700 437L702 430L707 423L706 420L711 416L710 413L713 410L716 411L723 406L725 412L724 414L727 415L731 412L732 415L736 414L737 416L733 423L732 422L734 420L730 422L732 422L733 425L730 426L731 429L729 431L733 431L731 433L728 432L728 434L726 436L726 434L725 437zM721 441L720 442L721 441zM729 435L730 435zM730 431L730 430zM733 426L734 425zM719 442L720 441zM733 421L733 421zM719 441L719 440zM733 426L733 426zM731 426L731 426zM734 423L734 423zM731 431L731 431zM732 422L732 422zM735 422L735 422zM736 419L737 419zM731 422L732 421L731 422z"/><path class="leaflet-interactive" stroke="#333" stroke-opacity="1" stroke-width="0.5" stroke-linecap="round" stroke-linejoin="round" stroke-dasharray="1,6" fill="#fff" fill-opacity="0.2" fill-rule="evenodd" d="M719 397L718 400L721 403L721 407L718 410L712 410L710 413L711 415L706 420L707 423L705 427L702 429L700 435L701 436L699 439L700 440L698 440L697 438L689 441L687 439L691 435L690 433L685 434L685 427L687 426L685 426L686 423L683 418L684 415L682 415L683 410L686 409L685 408L687 406L687 402L685 400L688 397L692 397L695 394L697 394L697 392L701 394L707 390L709 392L707 394L708 395L711 392L713 392L714 395L719 396z"/><path class="leaflet-interactive" stroke="#333" stroke-opacity="1" stroke-width="0.5" stroke-linecap="round" stroke-linejoin="round" stroke-dasharray="1,6" fill="#fff" fill-opacity="0.2" fill-rule="evenodd" d="M704 347L699 348L694 343L692 343L692 341L702 333L697 334L696 336L696 328L700 324L701 320L704 318L705 319L708 315L712 315L717 310L719 312L726 313L728 316L725 317L728 322L732 322L732 320L736 317L735 316L739 315L745 317L745 319L755 319L753 325L746 325L744 327L740 327L741 330L740 329L739 332L736 333L737 331L735 331L734 332L736 334L734 334L734 336L731 337L731 339L728 342L724 343L721 349L719 349L717 346L715 348L711 348L708 344L706 344L705 346zM739 314L739 314zM739 313L739 314zM742 329L741 329zM740 312L740 312zM741 310L741 309zM735 336L735 336zM739 314L739 313zM740 310L740 310zM746 317L746 317zM746 317L746 317zM746 317L746 317zM697 334L697 335z"/><path class="leaflet-interactive" stroke="#333" stroke-opacity="1" stroke-width="0.5" stroke-linecap="round" stroke-linejoin="round" stroke-dasharray="1,6" fill="#fff" fill-opacity="0.2" fill-rule="evenodd" d="M697 368L701 368L701 374L699 374L695 378L695 376L692 377L690 376L690 374L685 375L683 369L670 369L667 366L666 367L662 362L656 348L662 345L666 345L669 342L670 343L670 341L676 341L682 337L683 330L689 332L694 331L697 333L696 336L702 332L702 334L700 334L692 342L699 348L702 347L704 350L706 350L707 353L704 356L699 352L698 353L699 357L697 357L696 360L692 362L695 365L695 367L697 367zM683 369L683 369z"/><path class="leaflet-interactive" stroke="#333" stroke-opacity="1" stroke-width="0.5" stroke-linecap="round" stroke-linejoin="round" stroke-dasharray="1,6" fill="#fff" fill-opacity="0.2" fill-rule="evenodd" d="M662 361L666 367L667 366L670 369L678 368L681 370L683 368L685 375L690 375L691 377L694 376L698 380L702 381L699 385L702 390L701 394L697 392L697 394L695 394L692 397L688 397L685 400L683 400L682 393L678 396L677 393L675 395L671 395L668 392L657 390L657 394L649 394L649 396L646 399L646 397L644 397L645 396L642 393L640 393L642 389L640 387L642 387L643 385L650 385L655 382L655 380L650 374L649 369L651 366L655 366L652 363L651 364L651 362L649 361L661 361zM646 386L646 386zM662 361L661 361zM675 369L675 369zM676 393L676 393z"/><path class="leaflet-interactive" stroke="#333" stroke-opacity="1" stroke-width="0.5" stroke-linecap="round" stroke-linejoin="round" stroke-dasharray="1,6" fill="#fff" fill-opacity="0.2" fill-rule="evenodd" d="M649 427L649 425L647 425L649 417L644 418L646 416L645 415L649 413L647 409L647 398L649 394L657 394L657 390L660 390L668 392L671 395L675 395L677 393L678 396L682 392L682 398L687 405L687 407L682 413L682 415L684 415L683 418L686 423L685 425L687 425L685 431L682 434L678 432L676 434L678 435L676 437L672 435L669 439L668 438L665 440L665 436L661 436L665 429L663 429L663 425L658 425L655 428L653 426L652 429L649 427zM649 421L649 421z"/><path class="leaflet-interactive" stroke="#333" stroke-opacity="1" stroke-width="0.5" stroke-linecap="round" stroke-linejoin="round" stroke-dasharray="1,6" fill="#fff" fill-opacity="0.2" fill-rule="evenodd" d="M651 467L651 465L652 466L655 463L656 464L656 462L659 461L659 459L665 454L664 451L665 448L669 446L668 444L670 442L669 439L671 435L675 435L675 437L677 437L676 434L678 432L682 434L684 432L686 434L691 434L687 439L689 441L696 438L699 440L700 437L704 437L706 439L705 440L708 439L709 446L711 448L705 455L699 455L697 457L695 455L692 458L690 456L689 459L688 457L684 459L683 456L682 461L679 464L671 464L669 466L659 468L655 471L655 473L658 476L656 478L652 478L650 472L652 467zM711 450L710 450zM676 465L675 466L676 465zM673 466L674 466zM687 462L688 462zM673 466L673 466zM657 470L658 469L658 471L657 470zM657 471L655 471L657 471zM683 463L684 463zM683 463L683 463zM678 464L679 464zM684 459L684 459zM687 463L687 463zM687 463L687 463zM708 473L708 475L708 473zM677 464L678 464zM656 474L657 474zM658 472L658 472zM658 477L658 477zM701 470L701 471zM701 471L701 472zM700 456L700 456zM700 456L700 456z"/><path class="leaflet-interactive" stroke="#333" stroke-opacity="1" stroke-width="0.5" stroke-linecap="round" stroke-linejoin="round" stroke-dasharray="1,6" fill="#fff" fill-opacity="0.2" fill-rule="evenodd" d="M669 439L669 445L664 450L665 453L663 456L660 457L655 464L654 463L652 466L651 465L651 467L650 466L648 468L646 468L646 466L632 466L629 463L627 463L625 459L628 456L617 452L620 449L621 450L623 446L621 444L616 445L613 441L609 441L609 439L615 436L621 440L623 438L622 437L628 435L630 431L632 432L632 434L637 435L639 433L638 432L642 433L642 431L644 432L646 430L644 430L645 429L648 430L649 427L651 427L651 429L652 426L656 428L658 425L661 424L664 425L663 428L665 428L661 437L665 435L665 439L669 438zM614 437L614 437zM646 471L646 471z"/><path class="leaflet-interactive" stroke="#333" stroke-opacity="1" stroke-width="0.5" stroke-linecap="round" stroke-linejoin="round" stroke-dasharray="1,6" fill="#fff" fill-opacity="0.2" fill-rule="evenodd" d="M654 480L659 478L662 482L659 485L657 491L650 495L642 493L642 485L644 485L647 481L653 480zM671 613L671 613zM679 579L680 578zM665 505L666 504zM669 613L669 613zM715 521L715 521zM671 612L671 612zM667 512L667 512zM684 583L689 580L690 581L688 583L685 583zM666 512L666 512zM685 572L685 573zM685 573L685 573zM671 573L671 572zM667 510L668 509L667 510zM669 511L669 511zM684 585L684 585zM687 573L687 574zM671 505L672 506L671 505zM690 564L691 563L690 564zM700 566L701 565L700 566zM691 560L691 561zM683 583L684 582L683 583zM649 585L650 583L653 584L651 583L649 585zM704 572L704 573zM673 514L674 514zM674 573L674 573zM689 556L689 557zM673 511L672 511zM672 506L672 506zM665 510L665 510zM697 564L698 564zM705 560L707 560L705 560zM691 578L691 578zM689 579L690 579zM695 576L695 577zM684 580L685 580zM697 568L697 569zM682 572L683 572zM705 570L705 570zM693 556L693 556zM685 572L684 573L685 572zM691 555L692 554L691 555zM666 510L666 510zM690 552L691 552zM653 581L654 580L653 581zM707 551L708 552zM667 513L668 513zM684 563L684 563zM667 509L667 509zM673 510L674 509zM692 578L692 579zM706 565L706 566zM708 559L708 559zM691 512L692 512zM696 562L696 562zM701 569L701 569zM683 570L683 570zM691 583L691 583zM716 557L716 557zM687 561L687 561zM691 551L691 552zM707 559L707 559zM657 579L658 578L657 579zM665 575L665 575zM689 557L689 557zM679 579L679 579zM695 575L696 576zM666 583L666 583zM712 561L712 561zM686 556L686 556zM687 513L688 513zM658 579L658 580zM697 576L698 576zM666 574L667 575zM657 581L657 581zM672 572L672 572zM705 565L705 565zM669 579L669 579zM689 517L689 517zM693 554L693 555zM686 514L686 514zM702 563L702 563zM712 558L712 558zM692 586L692 586zM676 572L676 572zM667 582L667 582zM671 573L671 573zM673 597L674 598zM690 573L691 573zM692 580L693 580zM677 576L677 576zM682 588L682 588zM712 563L712 563zM677 484L678 484zM689 513L689 513zM684 487L684 487zM674 603L675 603zM666 580L667 580zM671 572L671 573zM676 581L677 581zM674 599L674 600zM707 511L707 511zM673 599L674 599zM677 604L677 604zM696 531L697 531zM684 518L684 518zM682 561L682 561zM674 603L674 603zM672 599L672 599zM671 507L671 507zM671 516L671 516zM674 601L674 601zM673 598L673 598zM679 593L679 593zM703 567L703 567zM693 584L693 584zM666 581L666 581zM685 515L685 515zM693 513L693 513zM707 571L707 571zM674 510L675 510zM663 481L663 481zM699 560L700 560zM675 511L675 511zM700 559L700 559zM673 567L673 567zM711 557L711 557zM690 517L690 517zM712 554L712 555zM715 555L715 555zM687 568L687 569zM691 565L691 565zM674 596L674 596z"/><path class="leaflet-interactive" stroke="#333" stroke-opacity="1" stroke-width="0.5" stroke-linecap="round" stroke-linejoin="round" stroke-dasharray="1,6" fill="#fff" fill-opacity="0.2" fill-rule="evenodd" d="M624 405L623 401L619 401L619 399L615 395L619 392L618 389L617 390L620 387L623 389L626 388L626 390L629 391L633 384L637 383L637 379L641 376L639 372L641 372L641 370L654 378L654 383L648 386L640 386L642 389L640 393L642 393L645 396L644 397L646 396L648 400L646 408L644 408L643 405L642 406L639 400L640 399L636 401L635 398L633 398L632 401L630 401L626 405L625 402L624 404zM646 385L646 385zM618 390L618 390zM646 386L646 386zM629 391L629 391z"/><path class="leaflet-interactive" stroke="#333" stroke-opacity="1" stroke-width="0.5" stroke-linecap="round" stroke-linejoin="round" stroke-dasharray="1,6" fill="#fff" fill-opacity="0.2" fill-rule="evenodd" d="M582 417L578 411L575 412L573 409L574 406L570 402L568 404L568 408L566 406L564 389L565 388L563 381L561 379L564 378L560 374L558 368L551 364L554 359L552 355L555 351L560 353L563 360L567 364L570 365L572 363L574 365L573 366L576 365L578 367L583 365L582 360L585 360L586 362L586 359L588 357L587 360L591 360L590 359L592 359L593 357L590 353L592 353L595 350L598 352L599 355L606 356L608 360L607 363L610 366L616 366L617 363L618 366L620 364L622 364L622 366L629 365L630 368L633 367L633 369L634 368L637 371L641 371L641 375L637 379L637 383L633 383L629 391L627 391L626 388L623 389L621 387L617 389L619 391L616 397L619 398L619 400L621 400L624 404L623 405L621 403L618 404L618 406L622 408L624 410L623 411L616 412L613 408L612 410L609 411L607 409L609 407L607 407L608 404L604 404L604 406L602 408L601 407L600 412L596 416L597 423L594 426L594 424L590 427L586 425L582 417zM623 389L623 389zM629 390L629 390zM617 389L617 389z"/><path class="leaflet-interactive" stroke="#333" stroke-opacity="1" stroke-width="0.5" stroke-linecap="round" stroke-linejoin="round" stroke-dasharray="1,6" fill="#fff" fill-opacity="0.2" fill-rule="evenodd" d="M647 405L649 413L647 415L646 414L646 416L643 418L648 417L650 419L647 424L649 426L648 430L645 429L644 430L646 430L644 432L643 431L642 434L641 432L639 432L638 435L633 434L630 431L628 435L621 439L614 436L611 440L609 438L611 436L611 434L608 431L610 422L603 422L602 418L604 414L606 416L608 414L612 416L615 414L616 411L623 412L623 408L619 406L618 407L618 405L621 402L624 405L625 402L626 405L630 401L631 402L633 398L635 398L636 401L640 399L640 403L642 403L642 405L645 408L647 405zM649 420L649 421zM649 421L650 421z"/><path class="leaflet-interactive" stroke="#333" stroke-opacity="1" stroke-width="0.5" stroke-linecap="round" stroke-linejoin="round" stroke-dasharray="1,6" fill="#fff" fill-opacity="0.2" fill-rule="evenodd" d="M615 412L615 414L611 416L608 414L606 416L604 414L602 420L603 423L610 422L607 431L610 434L612 434L609 440L616 445L621 444L623 446L622 449L620 449L617 452L614 451L611 454L612 455L607 455L604 458L602 456L600 456L597 459L594 456L592 456L591 459L586 458L585 461L587 464L587 470L583 470L583 467L581 465L579 467L575 467L572 464L572 462L566 462L568 458L567 456L569 454L563 450L564 449L562 445L564 444L558 444L554 446L553 445L555 443L553 441L555 437L554 436L562 428L561 427L563 423L563 415L560 412L560 414L558 412L558 406L562 408L563 406L561 403L562 400L564 402L564 398L566 398L565 402L568 408L568 404L570 402L574 406L573 409L576 412L578 410L580 412L579 413L585 421L584 422L586 424L585 425L587 425L587 427L597 423L596 416L601 411L601 407L602 408L604 404L608 404L607 407L609 407L607 409L609 411L615 409L615 412z"/><path class="leaflet-interactive" stroke="#333" stroke-opacity="1" stroke-width="0.5" stroke-linecap="round" stroke-linejoin="round" stroke-dasharray="1,6" fill="#fff" fill-opacity="0.2" fill-rule="evenodd" d="M490 332L487 333L491 335L488 340L488 342L491 345L491 351L489 353L495 360L499 362L502 361L510 365L516 365L521 368L529 366L536 371L535 373L537 375L540 374L542 376L543 373L547 375L546 372L550 372L551 369L552 370L551 367L558 368L563 378L561 380L564 384L566 398L564 398L564 402L562 400L561 403L563 406L561 408L559 406L557 408L556 406L554 406L554 404L551 407L552 410L549 412L543 407L539 407L535 408L535 410L532 412L527 413L521 419L510 420L509 415L506 414L503 409L501 411L499 409L491 407L485 413L486 415L484 417L484 415L482 414L483 409L481 408L479 410L474 411L470 411L465 408L463 410L461 408L461 410L457 406L454 407L453 403L450 404L445 399L446 398L444 397L441 399L436 394L434 394L434 392L430 391L429 388L424 387L422 391L418 387L414 385L413 386L408 381L405 382L402 379L402 373L399 370L399 368L402 365L404 369L406 367L406 363L401 357L401 353L405 349L409 349L411 347L412 342L413 343L415 339L427 341L432 336L434 336L437 339L442 340L454 335L456 337L459 336L464 331L468 331L471 329L481 329L489 332z"/><path class="leaflet-interactive" stroke="#333" stroke-opacity="1" stroke-width="0.5" stroke-linecap="round" stroke-linejoin="round" stroke-dasharray="1,6" fill="#fff" fill-opacity="0.2" fill-rule="evenodd" d="M656 361L649 361L652 364L654 364L653 367L650 366L649 368L650 375L641 370L637 370L634 368L633 369L633 367L630 368L629 365L617 365L617 363L620 363L620 357L626 357L625 350L627 350L624 347L626 345L625 342L634 344L636 343L634 341L635 340L642 340L642 329L631 323L632 316L635 314L638 317L642 317L643 314L646 313L645 310L653 301L652 300L653 301L655 299L654 298L658 300L661 297L663 299L663 302L661 304L660 309L657 312L657 314L660 317L656 323L658 337L655 344L656 349L661 357L661 361L657 361zM661 358L661 358zM622 365L622 365z"/><path class="leaflet-interactive" stroke="#333" stroke-opacity="1" stroke-width="0.5" stroke-linecap="round" stroke-linejoin="round" stroke-dasharray="1,6" fill="#fff" fill-opacity="0.2" fill-rule="evenodd" d="M625 336L629 334L629 332L625 330L625 324L627 322L631 322L631 324L638 328L639 327L643 332L641 334L641 341L635 340L635 344L625 342L626 345L624 347L627 350L625 350L626 352L624 354L626 357L620 357L619 360L621 361L619 364L616 363L614 367L611 366L607 363L608 360L606 356L599 355L596 350L591 353L593 357L588 362L588 358L583 356L579 351L581 349L586 352L591 350L588 347L588 345L592 341L591 340L595 338L594 336L597 333L595 327L592 324L594 322L588 316L587 317L580 313L580 311L579 312L574 308L574 310L572 310L564 302L562 302L561 304L559 302L557 305L552 301L548 301L549 306L546 309L546 311L544 310L542 312L538 309L529 310L527 305L524 306L522 304L518 304L517 301L511 301L514 296L516 286L522 285L526 279L532 274L534 274L535 276L537 273L539 273L542 269L540 266L542 264L550 262L555 275L553 277L559 283L559 286L563 286L565 284L566 285L566 283L573 283L575 286L574 290L569 294L579 299L579 303L582 303L585 306L587 306L589 304L587 302L592 300L596 302L600 299L605 298L607 302L604 307L600 309L600 315L612 321L616 326L616 334L617 336L619 336L619 338L621 338L620 339L624 341L625 336zM621 338L622 339L621 338zM595 330L595 330zM622 339L622 339zM625 336L625 336z"/><path class="leaflet-interactive" stroke="#333" stroke-opacity="1" stroke-width="0.5" stroke-linecap="round" stroke-linejoin="round" stroke-dasharray="1,6" fill="#fff" fill-opacity="0.2" fill-rule="evenodd" d="M595 330L597 331L597 333L588 345L588 347L591 350L587 352L580 349L579 350L580 354L587 358L586 361L582 361L582 366L574 366L572 362L571 365L569 365L563 361L560 352L556 351L554 352L554 354L552 354L552 356L555 359L552 361L553 362L551 364L554 367L552 367L552 369L549 372L547 372L546 375L543 373L542 376L540 374L537 375L535 373L536 370L533 370L534 369L529 366L521 368L519 366L510 365L502 361L499 362L495 360L489 353L491 351L491 344L489 344L488 341L491 335L487 333L491 333L493 331L499 333L501 329L498 326L503 322L497 316L497 310L494 311L493 308L515 301L517 301L518 304L522 304L524 306L527 305L529 309L538 309L542 312L544 310L546 311L546 309L549 306L549 301L558 305L559 302L561 304L563 302L566 303L565 304L572 310L574 311L574 308L577 311L578 310L582 315L586 315L588 317L589 316L593 322L592 324L595 326L595 329z"/><path class="leaflet-interactive" stroke="#333" stroke-opacity="1" stroke-width="0.5" stroke-linecap="round" stroke-linejoin="round" stroke-dasharray="1,6" fill="#fff" fill-opacity="0.2" fill-rule="evenodd" d="M631 322L627 322L625 324L625 330L628 331L629 334L625 336L624 341L616 335L616 325L609 319L607 319L617 316L620 313L620 305L622 301L623 302L623 300L626 299L629 302L629 304L625 310L628 312L632 312L632 314L634 314L631 318L631 322zM621 338L620 339zM622 339L622 339z"/><path class="leaflet-interactive" stroke="#333" stroke-opacity="1" stroke-width="0.5" stroke-linecap="round" stroke-linejoin="round" stroke-dasharray="1,6" fill="#fff" fill-opacity="0.2" fill-rule="evenodd" d="M544 263L540 266L542 269L541 272L535 275L532 274L524 281L522 285L516 286L514 296L511 300L512 303L503 306L498 306L493 309L494 311L497 310L496 316L503 322L498 325L498 327L501 328L501 331L499 333L493 331L491 333L481 329L471 329L463 331L460 336L459 335L457 337L454 335L445 340L436 339L435 336L431 336L431 338L429 338L427 341L415 339L415 341L413 343L412 342L411 347L409 349L408 348L404 350L398 346L396 338L391 339L383 334L382 335L379 332L380 329L378 326L376 326L373 323L371 324L367 322L373 319L371 317L372 316L370 308L366 306L363 308L360 300L360 298L363 297L362 294L365 291L366 292L369 289L371 289L371 287L374 288L376 286L377 289L383 289L388 281L394 282L394 280L396 280L399 277L413 271L413 264L417 261L415 260L418 259L418 255L415 249L415 242L411 240L411 238L426 233L432 236L433 235L430 232L430 230L436 212L443 215L452 216L456 214L458 211L456 201L460 197L462 198L465 196L467 192L466 191L468 189L472 190L474 188L476 196L481 198L483 202L488 202L495 207L496 211L501 218L498 230L499 236L500 235L503 237L504 236L510 238L520 238L531 246L536 246L535 249L537 249L538 254L543 261z"/><path class="leaflet-interactive" stroke="#333" stroke-opacity="1" stroke-width="0.5" stroke-linecap="round" stroke-linejoin="round" stroke-dasharray="1,6" fill="#fff" fill-opacity="0.2" fill-rule="evenodd" d="M737 459L734 453L734 449L743 435L749 435L749 441L745 453L741 458L741 464L738 459zM770 428L770 428zM761 430L762 429L761 430zM731 449L730 450L731 449zM763 428L763 428zM730 448L730 449zM730 451L730 451zM730 448L730 449zM750 431L750 431zM745 457L745 457zM746 462L746 462zM750 432L751 432zM729 452L729 452zM736 460L737 460z"/><path class="leaflet-interactive" stroke="#333" stroke-opacity="1" stroke-width="0.5" stroke-linecap="round" stroke-linejoin="round" stroke-dasharray="1,6" fill="#fff" fill-opacity="0.2" fill-rule="evenodd" d="M686 458L689 459L685 461L685 458zM686 461L686 461zM688 459L688 460zM688 459L688 459zM688 459L688 459zM688 460L688 460zM688 459L688 459zM688 460L688 460zM688 460L688 460z"/><path class="leaflet-interactive" stroke="#333" stroke-opacity="1" stroke-width="0.5" stroke-linecap="round" stroke-linejoin="round" stroke-dasharray="1,6" fill="#fff" fill-opacity="0.2" fill-rule="evenodd" d="M682 462L682 461zM682 461L682 461z"/><path class="leaflet-interactive" stroke="#333" stroke-opacity="1" stroke-width="0.5" stroke-linecap="round" stroke-linejoin="round" stroke-dasharray="1,6" fill="#fff" fill-opacity="0.2" fill-rule="evenodd" d="M754 450L756 440zM743 473L749 465zM729 497L734 488zM726 522L726 513zM723 554L725 547L722 556zM698 587L703 580zM672 616L676 614L668 617zM639 595L639 588L639 596zM654 552L656 545L654 553zM652 520L647 512L651 516L652 521z"/></g></svg>