<?xml version="1.0" encoding="utf-8"?>
<!-- Generator: Adobe Illustrator 22.1.0, SVG Export Plug-In . SVG Version: 6.00 Build 0)  -->
<svg version="1.1" id="图层_1" xmlns="http://www.w3.org/2000/svg" xmlns:xlink="http://www.w3.org/1999/xlink" x="0px" y="0px"
	 viewBox="0 0 1962 1169" style="enable-background:new 0 0 1962 1169;" xml:space="preserve">
<style type="text/css">
	.st0{fill:#FFFFFF;}
	.st1{enable-background:new    ;}
</style>
<g id="德城区_1_">
	<g>
		<path class="st0" d="M2645.802,562.38092l-0.3501,1.57166l3.5332,3.12494l-1.72217,1.79938l8.66577,1.66144l3.83228-2.83069
			l1.80078,0.71289l-1.14185,0.6676l6.7168,1.65198l-3.09497,7.6012l-7.04199,5.81342l0.68164,3.30847l3.73779,3.20227
			l3.31787-0.80157l8.48169,5.94934l3.75122,9.07129l8.28174,8.27863l16.54272-18.76031l13.49902-2.71722l16.87256-9.81628
			l4.99829-4.36346l1.61719,3.3678l14.28345,2.47778l14.61768-1.72772l1.22827,6.74353l8.50708,2.25415l-0.48975,0.68518
			c-0.11499,0.15759-0.04834,0.33679,0.15601,0.414l2.36426,0.93146l-1.77222,2.46143l-11.22729-0.19598l-5.06958,2.01715
			l0.53735,3.39807l3.96899,1.21112l-2.65918,5.64435l-1.97778,2.74646l-10.0332,0.81317l-4.40088,5.18427l-2.23999,9.93054
			l-4.26123,1.6936l-7.73682-3.04492l-7.18896,0.78308l0.36108-1.62048l-3.80591,1.56036l-2.11963-0.83502l2.69019-5.7052
			l-2.19385-3.28583l-6.16699-0.26111l-4.47314,5.18909l-2.77588,12.29694l-1.79639-1.44946l-3.00928,5.06732l-3.2688,0.82086
			l10.31714,4.71674l-2.55713,5.42517l-4.88477-0.08527c-0.2561-0.00452-0.48804,0.12036-0.56128,0.29095l-1.08496,2.79889
			l-5.82104,1.80756l-6.87988-1.12073l-2.38428,2.06403l-4.3418,0.90033l6.81348,1.77643l2.1936,1.77557l-1.67725,1.75714
			l-16.99878,11.57599l-11.61865,0.80396l-8.81909,6.66644l-2.62354,6.16064l-5.78711,4.36194l-3.25586,1.55774l-2.32593,3.11481
			l1.82617,3.94238l-5.40601,0.82031l-3.92188,3.07471l-1.13916,4.7132l-4.97314-1.00153l-2.23608,1.87634l-4.93335-1.97693
			l-6.07642,0.84546l-2.33691-1.88861l-6.18823-0.20624l-0.05884-3.39581l-6.62061-5.9046l-0.38965-1.63361l-2.42676,1.23456
			l-0.03076-12.21088l-2.12231-1.81732l3.74658-0.77563l4.6311-6.13788l-6.17773-5.50391l-13.68237-4.33966l-7.01514-0.8714
			l9.8479-6.58704l0.57227-2.00977l4.15967-1.71381l1.00073,0.84009l1.48389-2.87781l3.83374,0.06689l2.80737-4.08246
			l6.03052-1.87146l-3.54688-2.54816l-0.34058-4.91711l-4.43604-0.34753l-0.79541-1.60388l4.35938-1.73486l-11.71533-0.83069
			l-2.17065,1.90204l-6.55103-1.00452l-2.18896-1.83691l6.96997-7.28186l0.83667,0.70215l3.46411-5.15759l-6.70093-2.48047
			l-0.77539-8.4975l5.17627,0.09033l4.12378-5.21362l0.55176,2.06006l2.1897-0.67389l4.79541,1.91919l-0.40869,1.83453
			l8.87817,6.47809l2.95166-3.09772l-3.34058-3.11548l4.09985-1.6842l5.6355,0.09833l1.0249-2.37012l-2.49414-0.38733
			l4.88354-4.44525l-3.14209,0.33185l-0.73755-1.50458l7.80615-3.71283l-9.33643-1.71619l2.98584-2.49548l-3.72339-1.47699
			l1.36377-1.42493l5.19482,1.04218l-0.97583-5.05096l2.21704,0.0387l0.75781-7.29822l1.65405-1.73297l2.6499,0.04626
			l-0.12817-3.00421l2.26123,0.03949l1.11328-2.76764l2.06323,0.80951l9.49976-2.75629l2.41333,0.98755l5.47803-2.97388
			l-5.35303-2.24207L2645.802,562.38092z"/>
	</g>
	<g>
		<path class="st0" d="M2780.37476,592.19556l-1.98584,3.37866l-11.94116,0.02478l-4.29565,1.76666l0.6958,2.60895l3.87573,1.03149
			l-2.56592,6.33966l-2.17139,3.01917l-10.49121,1.03864l-3.76904,4.73486l-2.21191,9.9248l-5.04321,2.17731l-8.32446-3.07373
			l-7.32251,0.86688l-0.24219-1.53912l-2.32568,1.40204l-3.30298-1.01514l2.55811-6.18652l-1.98926-2.77264l-5.18506-0.09052
			l-3.75317,4.70453l-2.87842,12.9151l-2.80957-1.31989l-1.92554,4.42334l-2.83984,0.88348l9.88721,3.86206l-2.62354,6.32037
			l-5.40845,0.19403l-1.03979,2.67688l-6.5647,2.19983l-7.00708-1.06769l-1.71045,1.78717l-3.05396,0.73242l5.31372,0.86633
			l2.72925,2.11658l-1.92017,2.40973l-17.26343,11.76776l-11.93579,0.91498l-8.21704,6.35156l-2.50098,6.0094l-6.05029,4.62744
			l-3.28638,1.57556l-1.97632,2.74042l1.98901,3.92676l-6.25562,1.37024l-3.37866,2.74652l-1.08228,4.85541l-5.87646-0.7287
			l-1.69897,1.77521l-5.88062-1.94427l-5.82983,0.8927l-2.82202-2.0199l-6.08618-0.10626l-0.4856-3.86993l-6.5061-5.69995
			l-0.32837-1.15369l-1.73096,1.47998l-0.90356-13.13464l-2.40552-1.9389l4.60864-1.46039l4.02588-5.57141l-5.90308-4.94666
			l-13.39893-4.21802l-7.70679-0.95105l10.22314-7.51361l0.41162-1.8468l5.0481-2.23846l1.14795,0.49878l0.48242-2.16467
			l4.50171-0.2652l2.21484-3.73071l5.73413-1.89508l-3.24512-1.71417l-0.49072-4.99933l-3.92212-0.06848l-1.41162-2.25934
			c-0.08105-0.15491,0.04077-0.34302,0.26465-0.43121l3.25146-1.29993l-9.646-0.1684l-1.73315,1.76843l-7.61792-0.91254
			l-2.72192-2.18994l7.57129-8.3089l1.50903,0.51123l2.12256-4.11285l-6.35498-2.04462l-1.06665-9.33746l6.00928-0.30646
			l4.10815-5.69879l1.59595,2.50787l1.05884-0.61377l5.91968,2.08618l-0.22144,2.18768l8.13867,5.77759l1.65479-2.29169
			l-3.47534-2.909l4.96118-2.48566l5.59497,0.04236l0.30396-1.36359l-2.45581-0.04285l4.02856-4.46631l-1.4314,0.45374
			l-1.6499-2.2265l7.38794-3.82458l-8.87915-1.06354l2.85718-3.11157l-3.52344-0.93945l1.7522-2.49243l5.25464,0.77307
			l-1.59644-4.45398l2.93896-0.41534l0.17627-6.63922l2.01685-2.20551l2.74512-0.14233l-0.68896-2.55969l3.0249-0.40149
			l0.59009-2.64789l3.2854,0.69592l9.07593-2.76379l2.76611,0.95685l3.99902-2.3858l-6.17798-1.96179l9.11719-1.51672
			l0.08252,2.17456l3.53491,2.95929l-1.5376,2.00525l7.47437,1.03906l3.39185-2.76483l3.36572,0.97351l-0.94604,1.10071
			l6.16992,1.00397c0.2478,0.04126,0.37891,0.20917,0.3042,0.38599l-3.26196,7.99127l-7.06714,5.88654l0.74707,2.77563
			l3.36938,2.82733l2.72778-0.86096l9.31055,6.20935l3.86108,9.21448l7.76587,7.72943l15.39795-18.32001l13.94458-2.92413
			l16.50879-9.65698l5.47363-4.78485l2.66113,3.81567l13.65381,2.23962l14.77856-1.77399l1.76489,7.12128l8.45093,2.06891
			l-0.29565,1.16748L2780.37476,592.19556z M2777.67603,595.11365l1.77222-2.46149l-2.36401-0.93152
			c-0.20435-0.07715-0.271-0.25647-0.15601-0.41388l0.48975-0.68536l-8.23242-2.01593l-1.50317-6.98175l-14.42358,1.73126
			l-14.17358-2.29169l-1.9209-3.55737l-4.92285,4.30341l-16.73608,9.80029l-13.71143,2.79327l-15.7002,18.68286l-9.06348-8.11414
			l-3.81177-9.15826l-8.48145-5.9494l-2.75757,0.8728l-4.21362-3.13696l-0.89355-3.15253l7.16943-6.10583l3.09497-7.60126
			l-6.59644-1.07886l1.02148-1.24066l-1.80103-0.71301l-3.31519,2.69855l-8.92944-1.03363l1.46899-2.29498l-3.43652-2.88379
			l0.25342-1.81281l-6.52759,0.64117l5.30786,1.68878l-4.84375,3.46991l-3.00269-0.93018l-9.06689,2.76379l-2.49609-0.8172
			l-0.5437,2.44l-2.83081,0.28833l0.68726,2.56561l-3.20874,0.39215l-1.6543,1.73303l-0.18579,6.92145l-2.78906,0.3382
			l1.65967,4.60858l-5.87866-0.59985l-1.36377,1.42499l3.59058,0.95892l-2.85303,3.01343l9.23145,1.11267l-7.70117,4.31628
			l0.73755,1.50464l2.59473-0.82019l-4.33594,4.93359l2.07568,0.03619l-0.03564,2.38757l-6.20654,0.23541l-4.09961,1.6842
			l3.30322,2.76483l-2.0957,3.31531l-9.58643-6.08521l0.2981-2.0943l-4.79517-1.91919l-1.40698,0.82257l-1.33472-2.20886
			l-3.60352,4.98944l-5.69653,0.13379l0.77539,8.4975l6.48633,2.09009l-2.38086,5.39136l-1.70532-0.54547l-6.96997,7.28192
			l2.18896,1.83691l6.55103,1.00446l1.69702-1.72614l12.06299,0.02643l-4.2334,2.36322l0.79565,1.60388l4.01025,0.07001
			l0.76636,5.19458l3.72192,1.96191l-6.20581,2.45782l-2.28198,3.83374l-4.35913,0.18176l-0.59131,2.65405l-1.89331-0.61621
			l-4.15967,1.71381l-0.39917,1.79175l-10.02075,6.80499l6.9043,0.85095l13.6416,4.28369l6.29224,5.2298l-4.2373,6.27972
			l-4.10327,0.98425l2.01416,1.62512l0.13892,12.40314l1.56104-1.32947l1.25513,1.72858l6.52905,5.71863l0.15063,3.58179
			l5.86523,0.10236l2.65967,1.99249l5.73755-0.8761l5.27222,2.00745l1.63989-1.70862l5.56958,0.8338l1.00854-4.52515
			l3.73828-3.12701l5.71997-0.95605l-1.85815-3.67896l2.16479-3.22803l3.44897-1.70789l5.78735-4.36206l2.49951-6.00305
			l8.57739-6.69519l11.98413-0.93268l16.99878-11.57593l1.67725-1.75726l-2.1936-1.77557l-6.89746-1.12103l4.42603-1.55566
			l1.81323-1.88995l7.45068,0.94659l5.82104-1.80762l1.08496-2.79871c0.07349-0.17072,0.30518-0.29553,0.56152-0.29102
			l4.88477,0.08527l2.55688-5.42529l-10.49146-4.09351l3.44336-1.44391l2.13501-4.88611l2.67041,1.26813l2.71338-12.17517
			l4.02881-5.10474l6.29272-0.1051l2.55908,3.20013l-2.67407,5.95111l2.11938,0.83484l3.01147-1.81354l0.43335,1.87366
			l6.88672-0.81903l8.03906,3.08087l4.26147-1.69348l2.18481-9.80261l4.02856-5.10474l10.46069-1.02063l1.97778-2.74658
			l2.65894-5.64417l-3.71631-0.99194l-1.06152-3.23523l5.04639-2.34924L2777.67603,595.11365"/>
	</g>
</g>
<g id="陵城区_1_">
	<g>
		<path class="st0" d="M2962.92285,593.19354l-7.78296,2.89056l-2.7666-1.90857l-4.58716,2.67657l-1.74438-1.44263
			l-13.49414,5.08075l-0.72388,3.64642l3.77417,1.01099l0.62427,5.31519l-2.68726,12.09576l-11.81689,26.92175l-12.69775,17.9801
			l-5.39697,3.96381l-22.18945,8.68585l-9.72388,17.76831l-17.12988,17.85364l-8.67041,5.92017l-11.98169,0.92029
			l-24.81689,14.62567l-25.27588-6.43292l-8.84058-12.13733l-5.40576-0.09436l-9.19116,2.8045l-9.42798-5.20441l-9.57495-2.19934
			l-22.49463-9.44141l-14.49951,0.76019l-44.28589-3.77509l-9.02905-6.24146l1.19067-6.13647l-1.85791-2.48792l-1.52344,1.46509
			l-1.33008-3.38116l2.55591-6.21716l8.57739-6.69495l11.97534-0.93311l17.00757-11.57568l1.67725-1.75714l-2.1936-1.7757
			l-6.90625-1.12109l4.43481-1.55548l1.8042-1.8902l7.45068,0.94666l5.83008-1.80756l1.08472-2.79877l5.4375-0.20587
			l2.55713-5.42493l-10.48291-4.09375l3.44336-1.44391l2.1355-4.88611l2.66162,1.26807l2.71338-12.17505l4.02832-5.1048
			l6.302-0.10498l2.55005,3.20007l-2.66553,5.95117l2.11963,0.8349l3.01123-1.81366l0.4248,1.87366l6.88647-0.81891l8.04785,3.08105
			l4.25293-1.69385l2.18457-9.80255l4.02832-5.1048l10.46948-1.02045l1.97803-2.74652l2.65942-5.64447l-3.7168-0.99164
			l-1.06079-3.23553l5.04565-2.34906l11.51318,0.14587l1.78125-2.46149l-2.36401-0.93134l0.55737-1.42682l3.41699-1.9231
			l6.03076-0.95673l7.44482-7.78308l17.02026-3.87146l24.29614-11.61438l11.74023,1.1568l10.84009,4.24084l5.19092,3.12933
			l0.27979,6.06403l6.25781,2.9577l23.7146-3.55194l4.8125-2.81354l5.53687-5.78455l2.64673-11.87537l32.2915-6.78485
			l5.52856,2.09161l-0.66699,4.2243l9.93359,15.23224l-3.18237,1.38702l-1.97363,2.72821l0.7627,2.82471l4.75708,3.99982
			l8.07617,2.16083L2962.92285,593.19354z M2955.14941,595.36615l6.77148-2.29706l-0.50732-6.86975l-7.93384-2.12128
			l-5.06836-4.19556l-0.8938-3.15247l2.18945-3.17847l2.84766-0.99994l-9.78076-15.00256l0.81567-3.97601l-4.74683-1.90002
			l-31.32617,6.35333l-2.61133,11.7168l-5.73804,6.05078l-5.09351,2.99921l-24.30493,3.69489l-6.95776-3.16022l-0.31323-6.11365
			l-4.95703-2.98407l-10.5813-4.16888l-11.07544-1.19391l-24.18726,11.56085l-16.75098,3.74091l-7.45703,7.79523l-6.25049,1.0694
			l-3.05103,1.67175l-0.46387,0.64893l2.37207,0.9375l-1.9856,3.37866l-11.95044,0.02478l-4.29565,1.76654l0.70435,2.60901
			l3.87598,1.03149l-2.56567,6.33984l-2.17163,3.01923l-10.49146,1.03845l-3.77759,4.73486l-2.21191,9.92462l-5.04297,2.17755
			l-8.32446-3.07355l-7.31396,0.86652l-0.25122-1.53912l-2.31689,1.40253l-3.31177-1.01569l2.55835-6.1864l-1.98047-2.77252
			l-5.19409-0.09064l-3.74414,4.70477l-2.87842,12.91498l-2.80957-1.31964l-1.93457,4.42316l-2.8396,0.88324l9.89453,3.86847
			l-2.62207,6.31415l-5.4082,0.19409l-1.03979,2.67706l-6.57397,2.19952l-6.99756-1.06763l-1.71118,1.78729l-3.05396,0.7326
			l5.31396,0.86627l2.72949,2.11621l-1.92065,2.40997l-17.27148,11.7677l-11.93628,0.91473l-8.20801,6.35187l-2.479,5.94843
			l0.32202,2.375l1.24292-1.19989l3.11963,3.03174l-1.26001,6.01282l8.52783,5.98059l43.98901,3.75751l14.60767-0.76996
			l22.74927,9.495l9.6084,2.20551l8.91284,5.12836l9.02002-2.75238l6.01367,0.07422l9.02734,12.21442l24.33594,6.39178
			l24.70483-14.55988l11.92285-0.89691l8.40503-5.72217l16.99976-17.70868l9.78003-17.8595l22.41577-8.86615l5.16772-3.77118
			l12.60449-17.84052l11.78516-26.81781l2.66699-11.96759l-0.34204-4.83118l-3.83325-1.02435l0.54761-4.40436l14.49512-5.63416
			l1.59814,1.42139l4.49634-2.62872L2955.14941,595.36615"/>
	</g>
	<g>
		<polygon class="st0" points="2938.84326,551.67291 2943.5896,553.57288 2942.74341,557.37042 2952.55493,572.55133 
			2949.9895,573.3598 2947.56567,576.51593 2948.32666,579.74597 2953.30469,583.98889 2961.41382,586.19928 2961.92114,593.06879 
			2955.14966,595.36584 2952.87866,593.45996 2947.69312,596.07672 2946.73413,594.77081 2931.89453,599.99994 2930.7876,604.37 
			2934.8855,605.71838 2935.22754,610.54962 2932.5603,622.51691 2920.77515,649.33472 2908.1709,667.17535 2903.00293,670.94659 
			2880.84668,679.60248 2870.80713,697.67212 2853.80737,715.3808 2845.40259,721.10291 2833.78394,721.90686 2808.7749,736.55981 
			2784.43896,730.16797 2775.79248,718.11371 2769.62549,717.8526 2760.37793,720.63171 2751.604,715.55518 2741.85645,713.29779 
			2719.38062,703.85052 2704.49927,704.573 2660.51074,700.81555 2651.98267,694.83472 2653.28027,689.01312 2650.95923,685.78033 
			2648.88037,686.9903 2648.55835,684.61505 2651.03711,678.66669 2659.24536,672.315 2670.84595,671.51074 2688.37622,659.69849 
			2690.3833,657.6156 2687.86328,655.19586 2682.33008,654.23981 2685.0647,653.66748 2687.09497,651.72009 2693.76831,652.81268 
			2700.34302,650.84631 2701.70654,647.91113 2706.56494,647.99591 2709.92139,641.76831 2699.84253,637.53455 
			2702.33203,636.90881 2704.6167,632.22791 2706.53247,633.77765 2710.30444,620.63251 2714.04883,615.92798 2719.24292,616.01862 
			2721.22314,618.79114 2718.48926,624.61224 2721.3877,626.05023 2724.29346,624.59076 2724.02637,625.78931 2731.8584,625.26306 
			2739.69312,628.3465 2744.94263,626.43683 2747.43823,616.2345 2751.21582,611.49982 2761.25928,610.6806 2763.84863,607.49677 
			2766.67773,601.487 2762.5686,600.07086 2761.86426,597.46179 2766.15967,595.69513 2777.59009,595.89459 2780.24268,592.70575 
			2777.72388,591.35419 2778.18774,590.70538 2781.23828,589.03363 2787.13159,588.13586 2794.94604,580.16888 
			2811.54346,576.48053 2835.88428,564.867 2846.95996,566.06097 2857.54102,570.2298 2862.49805,573.21393 2862.63501,579.08508 
			2869.40747,582.43854 2893.82373,578.88055 2899.05835,575.88403 2904.81958,569.88867 2907.5166,558.02625 		"/>
	</g>
</g>
<g id="宁津县_1_">
	<g>
		<path class="st0" d="M3011.83154,530.88715l-0.41016,4.06903l-3.2561,6.17419l-6.71509,3.98981l-3.87451,10.85968
			l-17.22388,4.98486l-5.3396,4.86096l-21.80859,6.77722l-10.60254-15.45251l0.81689-3.98218l-4.73779-1.89972l-31.32642,6.35321
			l-2.61133,11.71667l-5.73804,6.0509l-5.09473,3.00525l-24.31274,3.68872l-6.95752-3.16016l-0.3147-6.10773l-4.95532-2.9903
			l-10.5813-4.16876l-11.06665-1.19391l-24.19604,11.56091l-16.74219,3.74115l-7.46606,7.79498l-6.25195,1.07562l-3.15088,1.72528
			l-9.17944-2.06329l-1.51245-6.98181l-14.41431,1.7312l-14.17407-2.29144l-2.18774-4.10852l2.17334-3.22784l14.44556-5.85004
			l2.2876-3.85834l9.51221-6.43323l-1.77539-0.03101l6.46338-4.49133l20.85718-8.71533l24.28809-18.53925l0.59546-2.67224
			l-2.37354-0.96851l3.43433-3.43311l10.19263,0.02454l14.85229-21.60141l6.00659,0.85983l4.31128-1.71719l0.62549-2.80682
			l3.50977-1.26498l1.48486,1.81253l8.70459-3.52533l-1.11841-7.83447l3.58643-2.24564l6.90137,4.04956l2.57031,0.04486
			l4.66992-2.73016l4.26074-12.63324l-3.65161-1.99741l0.28076-2.25427l7.60254-0.211l16.80029-11.56116l1.53174-6.87323
			l14.12988-3.08087l0.20996,1.96216l3.82495,0.06674l10.52881,5.19919l21.09766-4.62259l20.58374-0.68448l13.87256,3.04773
			l-1.09229,6.53116l7.39575-4.21713l-5.55713,9.25854l-0.98218,10.97168l16.03467,38.427l-4.91846,9.09787l2.58936,7.8786
			L3011.83154,530.88715z M3007.29126,540.87567l3.14966-5.93665l0.44873-3.72461l-4.59473-5.04651l-2.69531-8.11963
			l4.92188-9.07352l-16.01172-38.3714l0.97339-11.211l5.45996-7.78723l-6.69482,3.81833l0.72681-6.99942l-13.29297-2.94397
			l-20.28662,0.66486l-21.27515,4.66254l-10.77344-5.21588l-4.17822-0.07291l-0.0752-1.84921l-12.69189,2.55347l-1.50439,6.75098
			l-17.26782,11.98883l-7.18237-0.00262l-0.32446,1.45547l3.677,2.00394l-4.21582,13.26627l-5.17505,3.12656l-3.31665,0.04031
			l-6.36621-4.02151l-2.79175,1.58401l1.13525,7.87778l-9.81665,4.2179l-1.5603-1.83209l-2.41699,0.73761l-0.61865,2.77609
			l-5.03418,2.17737l-5.54126-0.99902l-14.80371,21.54077l-10.36865,0.05237l-2.95679,2.4837l2.16992,0.88525l-0.46802,3.29449
			l-24.60132,18.87146l-20.94897,8.76892l-5.67944,3.32025l1.66064,0.02893l-9.85913,7.35437l-2.32495,3.90649l-14.48047,5.88617
			l-1.96313,2.72223l1.75,3.6463l13.65503,2.23352l14.77881-1.77393l1.76465,7.12115l8.18945,2.00928l3.02002-1.65393
			l6.02295-0.9632l7.44409-7.77686l17.021-3.87726l24.30518-11.6142l11.73145,1.15619l10.83862,4.24713l5.19189,3.12323
			l0.27881,6.07013l6.2666,2.95776l23.71582-3.55792l4.80225-2.80756l5.53711-5.78461l2.64795-11.88159l32.30005-6.78442
			l5.52881,2.09167l-0.67529,4.22406l9.75317,14.9649l21.01489-6.47797l5.3501-4.86688l16.98804-4.80493l3.8584-10.78632
			L3007.29126,540.87567"/>
	</g>
	<g>
		<polygon class="st0" points="2923.09351,443.66946 2922.75952,445.16769 2927.34717,445.59152 2937.70459,450.76328 
			2959.39551,446.14481 2979.68213,445.47986 2992.9751,448.42383 2991.4729,455.16415 2998.94336,451.60504 2993.54004,459.25809 
			2992.49048,470.49237 3008.52173,508.9747 3003.62573,517.85205 3006.24487,526.07483 3010.88989,531.21436 3010.44116,534.93903 
			3007.29126,540.87561 3000.7251,544.71448 2996.67896,555.70618 2979.93286,560.38025 2974.34082,565.37793 2953.32617,571.85602 
			2943.57251,556.89099 2944.44482,552.97729 2939.09546,550.60028 2906.82568,557.04761 2903.771,569.24146 2898.23413,575.02588 
			2893.43188,577.8335 2869.71582,581.39142 2863.44971,578.43359 2863.31738,572.58087 2858.05151,569.27216 2847.29224,565.02655 
			2835.78711,563.76984 2811.10352,575.45105 2794.39429,579.16199 2786.63818,587.10541 2780.84644,587.98651 
			2777.59546,589.72235 2769.40601,587.7132 2768.15186,580.84637 2752.8623,582.36597 2739.20728,580.13245 2737.45728,576.48608 
			2739.42065,573.76398 2753.65283,568.07605 2756.22607,563.97107 2766.33105,557.18591 2764.4248,556.58783 2770.104,553.26758 
			2790.92041,544.57605 2815.51221,525.82733 2816.3208,522.6369 2813.95215,521.44757 2816.90894,518.96381 2826.75781,519.13574 
			2842.0813,497.37064 2847.21558,498.40564 2852.37231,496.47595 2853.27588,493.41614 2855.69263,492.67868 2856.57471,494.36996 
			2866.78589,490.65002 2865.93433,482.41513 2868.72583,480.8309 2874.79956,484.77374 2878.03394,484.90384 2883.38599,481.89713 
			2887.94214,468.73499 2884.1228,466.41534 2884.44727,464.95996 2891.22241,465.07825 2908.73364,453.19199 2910.4021,446.22275 
					"/>
	</g>
</g>
<g id="庆云县_1_">
	<g>
		<path class="st0" d="M3327.74585,374.91544l7.07446,5.93704l-1.93701,21.74094l-14.05811,5.62341l-9.02808,1.87439
			l3.35742,9.52481l-1.77051,7.94354l3.00537,6.20984l14.13745,2.45676l2.27856,1.91214l-1.52783,6.85507l9.3042,4.44736
			l2.16772,2.88632l-0.56812,2.54999l-5.63647,0.85928l-4.28198,5.0881l-12.80127,5.79272l-2.82397,5.70895l-2.07275-0.8465
			l-10.42114,11.02777l0.43213,3.83209l-3.68384-0.0643l-11.25586,3.87363l-0.75293,2.26437l5.50806,1.38535l-0.38013,1.70612
			l6.48486,1.341l-0.95825,0.5603l2.3772,1.5087l-0.37866,1.70001l-3.91724,4.92258l5.95703,5.34048l-1.30664,1.32773
			l-2.104-1.70035l-5.02417,0.8577l0.48462,2.16321l-2.68335,0.81873l2.0249,2.4541l-3.45288,3.55554l-2.54395-0.04437
			l-1.15234,2.98181l-8.15308-0.14233l-4.71021,0.96143l-2.34863,2.97931l-8.56714,0.83887l-8.4624,10.83478l-4.98071-1.00775
			l-5.61768-7.02277l-4.30322-1.22308l-8.1665,2.82257l-6.6582-1.08008l-3.11328-4.97156l-11.42578,8.81244l-7.9856,3.80182
			l-6.94067,0.82422l-2.40332-7.67871l5.52515-5.7724l3.55811-9.1217l-4.24658-1.43695l-3.71167-2.88257l-2.81787-1.1235
			l-8.28125,2.82059l-4.83179-0.08435l4.48389-7.5463l-5.11621-7.87958l1.85498,0.03238l-0.15112-9.38907l3.98706-4.87836
			c0.13403-0.16342,0.07031-0.35483-0.14185-0.43832l-2.36377-0.93146l1.93726-2.6857l-1.85864-2.80109l1.81982,0.03177
			l-1.24072-4.38031l11.24707-11.75l4.79077-2.79553l10.16968-0.82928l-2.04199-8.54419l-8.07959-3.29642l-4.17603-4.57886
			l10.44897-0.68936l11.80518,5.20312l8.96753-0.80725l8.84375,5.12076l13.60547-0.72635l8.14014-2.9028l29.58691-27.7533
			l17.08252-11.7525l16.00415-25.93384l7.13086-6.68973L3327.74585,374.91544z"/>
	</g>
	<g>
		<path class="st0" d="M3341.7085,452.04309l-0.60547,3.11417l-6.20996,1.20526l-3.84082,4.81955l-12.95093,5.9068l-2.74268,5.82095
			l-2.95557-0.66562l-9.33594,10.45746l0.56445,3.91409l-4.7583,0.34058l-10.61426,3.70074l-0.33545,1.50427l5.21094,1.04855
			l-0.08032,2.03058l6.64819,1.08597l-1.02246,1.24677l2.06372,0.84653l-0.24219,2.27933l-3.85693,4.89291l5.94507,4.99661
			l-1.90576,2.34244l-3.11963-1.79794l-3.68188,0.76462l0.84888,1.64154l-2.83496,1.22119l2.08423,1.74921l-3.83423,4.35309
			l-2.83252,0.13477l-0.59131,2.65387l-9.11987,0.17853l-4.23096,0.87769l-2.02661,2.80695l-9.00586,1.05835l-8.10083,10.72437
			l-6.19775-0.91852l-5.87769-7.1684l-3.74902-1.0047l-7.71509,2.78735l-7.39648-1.11133l-3.18652-4.80084l-10.11963,8.44232
			l-8.27881,3.9624l-7.71411,0.95203l-3.0415-8.31616l5.68262-6.11957l3.36133-8.67688l-3.73999-1.00452l-3.89795-2.96936
			l-2.43579-0.95966l-7.67578,2.76965l-5.8584-0.05304l4.27075-8.26218l-5.39551-8.01959l2.67749-0.47495l-0.7019-8.66809
			l3.8999-4.88611l-2.34766-0.92496c-0.20435-0.07721-0.26221-0.25632-0.14575-0.4201l2.0166-2.80087l-2.16528-2.89865
			l2.49487-0.49045l-1.63501-3.56458l11.50732-12.2428l5.09326-2.9989l10.02173-0.88092l-2.37354-7.57388l-7.80957-3.07687
			l-4.81274-5.22235l11.94971-1.29547l12.08081,5.23868l8.69312-0.84882l9.20117,5.18839l12.98633-0.77405l7.70508-2.78146
			l29.33545-27.57968l17.08667-11.77081l15.87012-25.77042l7.41724-6.97937l4.78174-0.08859l7.62866,6.23535l-1.86987,22.27621
			l-14.67017,6.06079l-8.67749,1.81314l3.63452,8.79898l-1.76367,8.07257l2.87671,5.83307l13.74805,2.2536l2.72339,2.18381
			l-1.42871,7.04715l8.98584,4.08585L3341.7085,452.04309z M3340.1814,454.87714l0.56812-2.54999l-2.16797-2.88641l-9.12207-4.14938
			l1.3457-7.15289l-2.27832-1.9122l-13.83398-2.26736l-3.29004-6.24539l1.75146-8.09738l-3.74219-9.07114l9.41309-2.32803
			l14.05811-5.62344l1.93677-21.74088l-7.07422-5.93719l-3.83374-0.06693l-7.13086,6.68982l-15.88721,25.80685l-17.19971,11.87955
			l-29.38306,27.63397l-8.14014,2.98264l-13.47827,0.83289l-9.17456-5.18781l-8.65796,0.84946l-12.11475-5.24533l-10.44922,0.68927
			l4.17627,4.57886l7.88208,3.1088l2.73022,8.28006l-10.66064,1.2811l-4.79077,2.79541l-11.24707,11.75009l1.79028,3.90497
			l-2.36914,0.4436l1.87256,2.50043l-1.95142,2.98636l2.36377,0.93146c0.21216,0.0834,0.27588,0.27493,0.14185,0.43823
			l-3.98682,4.87833l0.72803,8.98788l-2.43213,0.36887l5.11304,7.61563l-4.48071,7.8103l4.83203,0.08435l7.80151-2.81671
			l3.19507,1.06256l3.81396,2.93958l4.00024,1.07043l-3.2417,9.37286l-5.59521,5.88776l2.40332,7.67883l6.94092-0.82434
			l7.98535-3.8017l10.59985-8.84546l3.93945,5.00458l6.65796,1.0799l7.74487-2.79913l4.51392,1.0733l5.82861,7.14923
			l4.98096,1.00763l8.03345-10.62122l8.99585-1.05237l2.00244-2.77667l4.89331-1.14838l8.31616,0.12665l0.59009-2.64789
			l3.10645-0.28949l3.45264-3.55548l-2.27856-1.91217l2.93701-1.36084l-0.86475-1.69101l4.92603-1.41183l2.58228,1.78235
			l1.30664-1.32776l-5.9314-4.97784l3.8916-5.2851l0.37891-1.70016l-2.37378-0.96835l0.95483-1.10052l-6.16992-1.00397
			l0.06519-2.04315l-5.20972-1.05475l0.1416-2.30588l11.31055-4.1181l3.94189,0.01959l-0.51758-3.60641l9.7998-11.10605
			l2.77954,0.69913l2.59106-5.4982l13.03418-6.00342l3.8999-4.88611L3340.1814,454.87714"/>
	</g>
</g>
<g id="临邑县_1_">
	<g class="st1">
		<g>
			<polygon class="st0" points="2963.37476,593.09564 2985.16675,594.15131 2990.35205,596.23083 2995.10327,600.21808 
				2995.27368,612.18585 2999.88208,617.33087 2993.44458,627.07764 3000.61621,628.63928 3002.76147,630.4325 
				2990.94995,639.06635 2988.6084,649.13629 2980.15112,654.89429 2974.17358,661.89886 2978.01196,670.06305 
				2968.58228,674.77277 2964.2207,680.854 2966.29956,704.1936 2979.9856,708.6745 2984.3125,712.29834 2979.16211,713.08624 
				2978.84741,719.47137 2982.00806,718.93726 2983.25635,725.31281 2980.47803,726.16058 2977.41431,732.2276 
				2969.42725,736.03552 2974.48242,738.57935 2974.07471,740.40778 2976.84448,740.79376 2975.80786,745.48419 
				2980.72217,744.91925 2985.70435,746.91541 2986.177,750.72369 2988.81201,751.9115 2985.9585,758.46716 2979.95752,760.32684 
				2978.9812,769.72083 2981.65698,770.9646 2981.30273,772.5545 2972.55444,774.36627 2972.70728,778.65393 2969.91724,780.98712 
				2969.16724,779.4577 2951.39282,778.95715 2934.20947,783.72186 2910.2002,787.32373 2903.26245,791.31573 2901.948,796.57837 
				2903.14014,810.72485 2913.20093,816.91046 2910.11499,819.49634 2890.30273,824.15985 2879.89478,831.94653 
				2867.82373,828.81372 2854.16211,829.51447 2846.02197,832.4173 2842.20825,836.35944 2834.35693,837.13092 
				2836.42749,833.64948 2829.24268,832.10602 2824.43188,828.06854 2818.89185,826.90369 2816.19604,819.98102 
				2802.18457,818.55164 2809.38354,806.02502 2805.06201,804.52533 2802.69287,806.44232 2800.95288,806.41193 
				2802.3855,804.95746 2799.24219,799.5249 2790.88135,791.28168 2788.80518,791.12885 2791.01831,789.87213 2796.61865,789.96991 
				2798.34424,783.97772 2800.76245,780.52692 2808.05249,760.7088 2814.13159,752.80975 2814.05518,746.62653 
				2809.59033,739.28625 2810.19165,736.58856 2834.83496,722.06525 2846.47998,721.26172 2855.40869,715.29706 
				2872.55469,697.44971 2882.34058,679.60278 2904.38867,670.99414 2909.82471,667.05573 2922.59351,649.03375 
				2934.42236,622.10004 2937.12134,610.02893 2936.77417,604.90302 2932.72925,603.63531 2933.45288,599.9892 
				2946.94849,594.90228 2947.95312,596.28265 2953.28003,593.6684 2955.47632,595.51154 			"/>
		</g>
		<g>
			<path class="st0" d="M2989.67432,751.42346l-2.83984,7.3291l-6.24683,2.08881l-0.60449,8.6391l2.49463,0.98297l-0.2478,2.34692
				l-9.04614,2.1134l0.53418,3.72968l-3.64136,3.20819l-1.7605-1.92761l-16.96021-0.29602l-16.91748,4.72638l-24.00952,3.60187
				l-6.41187,3.74347l-1.08057,4.84918l1.19092,13.91315l10.11377,6.10687l-3.49683,3.3952l-20.08936,4.79364l-10.31982,7.78833
				l-12.87207-3.07935l-13.24683,0.70789l-7.68628,2.7757l-3.65601,3.87115l-9.26074,1.04797l1.69678-4.07123l-6.54639-1.06592
				l-5.04517-4.13983l-5.44019-1.0954l-2.96948-7.08722l-13.92017-1.24341l6.90186-13.02301l-3.31421-0.88666l-1.66089,1.68378
				l-3.31787,0.12622l1.42065-2.27734l-3.08105-4.91565l-8.17334-8.0495l-2.7207-0.04755l3.16675-2.51086l5.65747,0.00055
				l1.10693-5.36462l2.48242-3.57849l7.24854-19.7514l6.08862-7.94171l-0.13232-5.85278l-4.44873-7.25421l0.6189-3.0954
				l25.1543-14.94501l11.92261-0.89691l8.40503-5.72205l16.99854-17.70264l9.78125-17.86548l22.41455-8.85999l5.16895-3.77734
				l12.61353-17.84045l11.77637-26.81812l2.66699-11.96722l-0.33447-4.82507l-3.84058-1.03088l0.54565-4.39807l14.49512-5.63403
				l1.59961,1.41528l4.49683-2.62891l2.95996,1.91779l7.10864-2.41132l22.30371,1.02783l5.52563,2.18359l5.01172,4.17004
				l0.25635,12.17804l4.60986,5.05914l-6.29541,9.86584l6.51953,1.06512l2.72192,2.19019l-12.05713,9.21881l-2.19971,9.86993
				l-8.7041,6.03003l-5.72119,6.73273l3.94165,7.97565l-9.85571,5.23016l-4.05713,5.7489l2.10791,22.89191l13.30713,4.19196
				l5.04321,4.1889l-5.9104,1.41315l0.11987,5.23236l2.43066-0.7616l2.03394,7.26691l-3.27515,1.28723l-2.72559,5.78461
				l-7.70239,3.76361l4.70972,1.82574l-0.17212,2.00427l2.35864,0.04114l-0.59595,4.90094l3.8584-0.79828l5.71655,2.16254
				l0.67847,4.03888L2989.67432,751.42346z M2985.95825,758.46741l2.85327-6.55591l-2.42896-0.95685l-0.67847-4.03918
				l-4.98193-1.99609l-4.3418,0.90027l0.46387-5.02582l-2.34985-0.04102l-0.01221-2.17334l-5.09351-1.97363l8.02515-4.37817
				l2.74292-5.82086l3.09937-1.09393l-1.24829-6.37537l-2.50854,0.79108l-0.78564-6.26337l5.59863-1.16675l-4.32715-3.62384
				l-13.44727-4.23743l-2.36572-23.40594l4.22559-6.10815l9.61401-4.85999l-3.88477-7.87646l5.92529-7.20789l8.55591-5.84235
				l2.19824-9.86383l11.95483-8.84009l-2.14526-1.79315l-6.89624-1.12689l6.16187-10.18134l-4.54614-4.98456l-0.23218-12.12823
				l-4.75146-3.98737l-5.1853-2.07953l-21.79175-1.05579l-7.32812,2.48132l-2.76709-1.90833l-4.58838,2.68219l-1.74292-1.4483
				l-13.49536,5.08679l-0.72412,3.64606l3.78296,1.0116l0.61719,5.30872l-2.68701,12.09583l-11.81763,26.92145l-12.69727,17.98041
				l-5.39673,3.96368l-22.1897,8.68585l-9.72559,17.77435l-17.12964,17.8537l-8.66919,5.91412l-11.98169,0.92029l-24.64331,14.52332
				l-0.60107,2.69781l4.42749,7.22913l0.17114,6.11719l-6.13672,8.07599l-7.24683,19.74536l-2.46118,3.52368l-1.16235,5.6521
				l-6.16357,0.24243l-2.21313,1.25665l1.7312,0.03021l8.66382,8.31604l3.24097,5.15179l-1.48828,1.78491l1.73999,0.0304
				l1.73169-1.76239l4.72925,0.94208l-6.96948,12.92975l13.65039,1.22046l3.05737,7.13141l5.33911,1.06958l5.01147,4.13281
				l6.89746,1.12109l-1.7832,3.90387l7.85132-0.77161l3.58789-3.80463l8.15308-3.00079l13.67554-0.76208l12.27002,3.15485
				l10.17017-7.67413l20.05005-4.77631l3.08618-2.58582l-9.92041-5.98065l-1.34033-14.27771l1.12769-5.10016l6.88306-4.14661
				l24.25854-3.68353l16.97339-4.73761l17.58472,0.27643l1.14917,1.72675l2.79028-2.33337l-0.56079-3.88953l9.15625-2.20972
				l0.35449-1.59009l-2.47119-0.97003l0.43164-9.33582L2985.95825,758.46741"/>
		</g>
	</g>
</g>
<g id="齐河县_1_">
	<g>
		<polygon class="st0" points="2801.42651,819.15442 2815.17261,820.38269 2817.85889,827.26837 2823.58203,828.56531 
			2828.40039,832.60907 2835.17358,833.77087 2833.01465,837.4104 2842.34351,836.97162 2846.39404,832.9231 2854.08911,830.14758 
			2867.33545,829.43958 2878.49292,832.33545 2876.46143,832.89545 2875.78833,841.2879 2881.0481,843.50989 2878.12866,850.24243 
			2896.44751,852.87659 2895.20605,858.44745 2888.52344,863.28491 2905.43115,872.05176 2905.91479,882.93225 
			2901.26074,903.81537 2899.55493,905.54138 2892.68579,906.36072 2891.78052,904.53394 2887.07056,904.26141 
			2883.10889,913.36383 2875.89087,915.15314 2860.03662,908.94006 2856.23853,916.15454 2858.99561,916.59558 2858.48047,918.9071 
			2850.33618,918.76489 2846.01807,922.90088 2842.01831,934.00385 2842.93115,943.19751 2850.2041,943.58838 2850.33057,949.1095 
			2836.09082,955.70587 2825.88428,956.54059 2806.76392,963.27277 2799.15552,971.07147 2793.67017,970.97571 2789.9939,973.06628 
			2787.8042,982.25488 2782.31372,987.99103 2776.22632,989.87988 2770.68896,1000.91925 2745.85156,1009.43011 
			2735.77271,1009.25415 2731.57715,1019.36542 2725.42139,1022.11871 2715.2146,1022.95349 2712.87402,1025.14099 
			2714.56665,1030.35791 2710.91455,1034.1311 2704.46045,1037.9043 2696.02466,1037.75708 2689.93604,1043.78967 
			2681.61597,1048.65381 2680.96631,1050.93237 2690.30566,1054.30603 2687.76172,1059.71301 2679.53784,1059.56946 
			2669.44287,1064.51917 2670.24805,1066.995 2679.57715,1070.21497 2676.65186,1076.93518 2679.94727,1088.0918 
			2677.97095,1090.83215 2673.41553,1092.64954 2653.54785,1097.32434 2638.02588,1098.93201 2640.09497,1095.45667 
			2638.78564,1094.08936 2635.20264,1095.76416 2633.21948,1094.15796 2636.83667,1090.42114 2635.58789,1088.9812 
			2628.79272,1091.69873 2622.67163,1088.80481 2623.77979,1083.83325 2619.93457,1082.54443 2621.52954,1080.87793 
			2614.48242,1079.27551 2613.54321,1077.36218 2607.98389,1080.06445 2597.14258,1078.89307 2595.42529,1074.10535 
			2600.09351,1066.24927 2597.35571,1058.95752 2588.96313,1050.7384 2573.07446,1044.48169 2586.56396,1009.81738 
			2590.25464,1005.90997 2587.92773,1003.49969 2586.5874,996.66211 2592.12549,990.87158 2593.73267,970.61047 
			2595.46143,963.29962 2649.48291,978.80914 2659.25513,980.36096 2668.60815,978.46155 2670.83276,976.35785 
			2665.40967,968.93951 2664.86035,965.11761 2673.52075,958.36865 2685.08691,939.41711 2688.52954,936.62262 
			2692.66748,935.76172 2700.23096,939.82263 2704.81226,939.95782 2729.69897,921.159 2729.26025,916.84186 2722.48926,908.70624 
			2726.26099,903.95917 2739.69067,895.70343 2746.90869,893.91406 2753.3645,902.86682 2759.8208,907.08032 2767.89771,909.79352 
			2773.12231,907.87726 2774.27661,903.69226 2777.78467,900.84363 2777.78442,894.87659 2781.91211,894.02167 
			2782.75879,891.73438 2778.37451,891.31409 2776.85718,885.6275 2786.40405,872.8717 2793.72607,868.06995 2790.11914,868.17889 
			2794.58252,864.18671 2797.13037,864.29254 2796.33203,856.81372 2788.89062,844.64539 2787.96899,835.69098 
			2796.98486,820.97992 		"/>
	</g>
	<g>
		<path class="st0" d="M2906.90625,882.85754l-4.68311,21.05481l-2.0022,2.10132l-7.87183,1.05981l-1.41968-2.06305
			l-3.57788-0.06244l-3.36938,8.71368l-8.07642,2.17957l-15.88477-6.07837l-2.65894,6.12323l2.2793,0.03979l-0.2561,3.3349
			l-8.90039,0.18842l-3.60474,3.71881l-3.88257,10.85931l0.90015,8.7699l6.86328,0.11981l0.56592,6.2959l-14.87427,7.09479
			l-10.47705,0.89789l-18.71338,6.61615l-7.47583,7.75842l-6.05762,0.08447l-2.97949,1.78955l-1.98291,8.8974l-5.73022,6.05719
			l-6.2644,2.00861l-5.21655,10.79352l-25.4751,8.86176l-10.01025-0.12573l-3.58789,9.65546l-6.70923,3.12427l-10.31396,0.8819
			l-1.64282,1.72125l1.77319,4.93555l-3.91528,4.23547l-6.7959,3.99451l-8.70459-0.05396l-5.46851,5.71814l-8.33569,4.89429
			l-0.37207,1.66968l9.16577,3.07581l-2.59766,6.3269l-9.0022,0.12524l-9.27051,4.63281l0.84253,1.70911l9.29102,3.11475
			l-2.78784,7.25671l3.3147,11.02808l-2.18164,3.18494l-4.9917,2.0675l-20.06738,4.73315l-16.43115,1.70825l1.78467-4.22949
			l-0.78418-0.65808l-2.88574,1.68665l-3.19312-2.026l3.61914-4.14209l-0.7771-0.65198l-6.0769,2.71765l-7.146-3.10803
			l0.92236-5.21436l-3.78271-1.0116l1.38086-2.09985l-6.42578-1.04529l-1.11035-1.82434l-4.42505,2.58704l-11.79126-1.12659
			l-2.17114-5.29858l4.69727-8.06445l-2.69702-6.91663l-8.24658-8.0387l-15.96216-6.24573l13.42017-35.30994l3.60986-3.85986
			l-2.19067-1.91052l-1.47485-7.19l5.65308-6.06445l1.52148-19.99902l1.84766-7.85022l55.33032,15.37402l9.54175,1.5108
			l8.76904-1.82318l1.61572-1.64203l-5.37598-6.95099l-0.6272-4.14825l8.89844-7.10101l11.46021-18.83691l3.71069-3.04132
			l4.82324-1.06989l8.05078,4.14319l3.92212,0.06842l24.1167-18.40741l-0.55273-3.80969l-6.80078-8.11749l3.97485-5.30231
			l13.71631-8.46521l7.90161-1.99243l7.16333,9.27789l6.26587,4.07538l7.69263,2.56531l4.27173-1.69971l0.85327-3.82825
			l3.6062-3.01245l-0.13672-5.87134l4.60498-1.24561l0.30933-1.38788l-3.83374-0.06696l-2.01685-6.26624l9.7229-13.15173
			l6.08521-4.02521l-2.71558,0.56628l5.06567-5.46106l2.63013-0.06458l-1.28809-6.55414l-7.42065-12.10083l-0.95874-9.18793
			l9.17773-15.07666l5.01099-2.15332l14.54492,1.22369l3.04956,7.12531l5.33838,1.07538l5.01147,4.13324l6.89722,1.12091
			l-1.7832,3.90417l7.85132-0.77191l3.59692-3.80463l8.14404-3.0011l13.67529-0.76184l12.58984,3.23431l-2.99731,1.43311
			l-0.2959,7.61322l5.13525,1.98669l-2.70435,7.00012l17.93652,2.24084l-0.9917,6.31775l-6.55151,4.84625l16.63208,8.13556
			L2906.90625,882.85754z M2901.26025,903.8158l4.6543-20.88342l-0.48364-10.88062l-16.896-8.263l6.6709-5.34094l1.24146-5.57092
			l-17.99707-2.2478l2.59766-7.1189l-5.05347-1.95459l0.10474-8.31l2.39355-0.90973l-11.15771-2.89618l-13.24634,0.70837
			l-7.69531,2.77515l-3.65601,3.87146l-9.2605,1.04742l1.69629-4.07111l-6.5459-1.06573l-5.04517-4.13977l-5.44043-1.09546
			l-2.96948-7.08728l-13.74609-1.22809l-4.44141,1.82544l-9.01611,14.711l0.92139,8.95453l7.41431,12.09418l1.41724,7.12756
			l-3.13916,0.31964l-4.46362,3.99207l3.19849-0.66235l-6.91309,5.35504l-9.54761,12.7561l1.51733,5.6864l3.96606,0.06921
			l-0.02051,2.32019l-4.53564,1.17297l0.13599,5.71783l-3.64331,3.09796l-0.87085,3.90771l-5.04224,2.17114l-8.44751-2.63989
			l-6.47217-4.18298l-6.53516-9.03418l-7.21802,1.78937l-13.42993,8.2558l-3.77197,4.74713l6.71851,8.01208l0.63525,4.15491
			l-24.60327,18.95709l-4.74658,0.05188l-7.82568-4.12042l-4.1377,0.86096l-3.44238,2.79437l-11.4624,18.84277l-8.76465,6.85773
			l0.5498,3.82202l5.46558,7.06891l-1.95703,2.29285l-9.4043,2.05188l-9.96313-1.53058l-54.08936-15.52313l-1.72876,7.31079
			l-1.51367,20.07886l-5.63184,5.97272l1.34009,6.83795l2.3252,2.02332l-3.68896,4.29443l-13.48926,34.66376l15.75586,6.1748
			l8.46655,8.20801l2.81909,7.16443l-4.69043,8.0769l1.7168,4.78748l10.8418,1.17139l4.79199-2.80151l1.70654,2.01245
			l6.81006,1.11353l-1.3584,2.15564l3.58057,0.96497l-0.84302,5.29553l6.12061,2.89343l6.16626-2.75916l1.87671,1.08875
			l-3.61548,4.12976l1.98291,1.6062l2.89355-1.68652l1.93848,1.05261l-2.00928,3.80164l15.52222-1.60718l19.86768-4.67529
			l4.55542-1.81702l1.97656-2.74023l-3.30566-10.99121l2.9353-6.88562l-9.11719-3.05676l-1.23315-2.22571l9.97559-5.28918
			l8.55957,0.0697l2.5437-5.4071l-9.10889-3.05652l0.22339-2.35388l8.51611-5.10608l5.60474-5.85083l8.91968-0.03455
			l6.45386-3.77307l3.6521-3.77344l-1.76416-4.93542l2.00049-2.29205l10.61841-1.01129l6.15576-2.75354l3.64111-9.81396
			l10.63354-0.12152l24.83716-8.51086l5.22778-10.80511l6.39746-2.12323l5.49023-5.73596l1.99658-8.95856l3.49268-2.22296
			l5.86157-0.00165l7.39185-7.66132l19.15088-6.8299l10.39282-0.87463l14.23999-6.59619l-0.12695-5.521l-6.854-0.11963
			l-1.34595-9.36115l3.93384-11.08582l3.91626-4.08136l8.62671-0.03369l0.51538-2.31158l-2.35913-0.04114l2.63623-7.36987
			l16.61768,5.96887l7.21802-1.78937l3.40894-8.8111l4.87256-0.21613l1.29541,2.02423l6.8689-0.81976L2901.26025,903.8158"/>
	</g>
</g>
<g id="平原县_1_">
	<g>
		<path class="st0" d="M2523.625,760.6427c0.02002,0.00214,0.04077,0.00336,0.06128,0.00372
			c0.09253,0.00159,0.18677-0.01544,0.27246-0.04834l-1.89233,1.10992l-0.42944-1.29663L2523.625,760.6427z"/>
	</g>
	<g>
		<path class="st0" d="M2809.28247,736.79431l-0.38672,3.24689l-32.56104,21.75879l-13.13428-0.11261l-4.9209,3.1004
			l-15.99927,19.78241l-8.61499,6.54736l-11.72583,6.8551l-1.61646-0.78345l-16.19507,11.4306l-8.53296,1.99951l-1.82056-3.64746
			l-1.17065,5.25293l-5.03564,3.17786l0.91602,1.77789l-18.28076,3.24164l-1.2019-0.73334l-6.18506,9.37079l-10.4397,1.04535
			l-5.15796,10.45068l1.34375,0.85211l-6.90234,10.48126l-4.75928-0.88727l1.28003-2.00342l-2.14648-0.03748l-3.48193-5.10687
			l-12.61401-0.22015l-19.46094,2.64984l-2.92676-2.18744l1.58252-2.04712l-9.12695-2.01947l0.09033-2.03656l-3.41846-0.05969
			l-2.45581,4.73309l-7.68262-0.82166l-2.09985-5.18097l-11.79858-5.19073l-7.28027-6.08795l-2.64136-0.04614l-1.29565-2.02386
			l-7.11426,0.84564l-3.67603-5.26984l1.72144-2.07581l-7.77808-4.13196l12.68237-10.15344l12.31592-5.52502l-2.05298-0.81555
			l0.66138-4.19952l-3.2771-3.91864l-6.70654-2.05701l-12.38037-10.17957l0.49438-2.89502l-2.44653-0.04272l0.17139-2.9989
			l-2.35864-0.0412l-2.88721-8.17212l-3.61548-0.96558l-3.14209,1.84186l-1.54321-2.46399l3.07007-0.1673l5.44409-5.68793
			l3.18701-0.13477l6.73608-4.79944l10.62134-2.81653l0.08862-6.76361l5.74023-6.10034l26.92065-16.58386l3.05566-7.5036
			l-5.22949-0.09125l-0.23047-4.25836l5.302-8.23199l5.6123-2.10577l2.35352-2.00311l1.25391,1.73456l6.52881,5.71881l0.1521,3.5755
			l5.86499,0.10236l2.65112,1.99225l5.74634-0.87585l5.27197,2.00745l1.63159-1.70862l5.57788,0.83386l1.00854-4.52533
			l3.73828-3.12677l5.71094-0.95624l-1.85791-3.67896l2.17383-3.22815l3.44727-1.70142l5.87451-4.43433l1.18213,2.57434
			l1.23389-1.20001l3.11963,3.03186l-1.25146,6.01282l8.51929,5.98059l43.98853,3.75732l14.60693-0.7641l22.75,9.48901
			l9.60889,2.20587l8.91309,5.12793l9.01831-2.74628l6.02393,0.06854l9.01831,12.21405L2809.28247,736.79431z M2807.93335,739.90173
			l0.56836-2.55017l-24.4353-6.42432l-8.83154-12.13733l-5.41504-0.09454l-9.19092,2.80463l-9.42822-5.20435l-9.57446-2.19922
			l-22.49463-9.44128l-14.49951,0.75964l-44.28638-3.77496l-9.02856-6.24121l1.19043-6.13654l-1.85767-2.48798l-1.51465,1.46533
			l-1.24731-2.68005l-5.17139,3.90625l-3.28613,1.5755l-1.97656,2.74042l1.9895,3.9267l-6.2561,1.37042l-3.37866,2.74652
			l-1.08203,4.85529l-5.87646-0.72882l-1.69897,1.77521l-5.88208-1.93805l-5.82861,0.88654l-2.83228-2.01385l-6.07715-0.10608
			l-0.48438-3.87592l-6.50635-5.70001l-0.32812-1.15387l-1.73999,1.4798l-5.46289,1.99207l-5.12109,7.89728l-0.17749,3.58209
			l5.35303,0.09344l-2.85303,8.38507l-27.0603,16.73492l-5.52271,5.76025l-0.08838,6.92316l-11.021,3.13501l-6.82007,4.85938
			l-3.05835,0.07568l-5.46924,5.71796l0.67041-0.38116l4.61304,1.02612l2.72217,8.07709l2.50903,0.04382l-0.18115,2.99872
			l2.45581,0.04291l-0.21533,3.19458l12.04102,9.9527l6.7395,2.0697l3.61279,4.20068l-0.79443,4.0011l2.46948,0.97632
			l-12.91064,6.32489l-12.27148,9.34399l7.72266,4.10046l-1.69702,2.28479l2.96313,4.72974l7.13306-0.85168l1.4187,2.06897
			l2.54395,0.04437l7.59302,6.19775l11.8772,5.23529l1.93774,5.07385l6.33691,0.97015l2.4248-4.67255l4.85791-0.19147
			l0.0127,2.13055l9.32837,2.0719l-1.51953,2.28186l2.12256,1.77417l19.23364-2.62329l13.06592,0.22205l3.48169,5.10687
			l2.65869,0.04639l-1.2627,2.16357l3.13721,0.8454l6.59985-9.55847l-1.31299-0.83313l5.27661-11.22198l10.49194-1.0816
			l6.40283-9.71063l1.92847,0.77655l16.95361-2.61987l-0.82935-1.61078l5.13208-3.40948l1.52905-6.86115l2.68628,4.65723
			l7.69971-1.76263l16.50903-11.64606l1.6875,0.78473l11.23608-6.56897l8.46167-6.41467l16.02075-19.80078l5.26929-3.35211
			l13.11572,0.11835L2807.93335,739.90173 M2522.06641,761.70819l1.89233-1.11023c-0.08545,0.03296-0.17969,0.05005-0.27246,0.0484
			c-0.02075-0.00037-0.04102-0.00159-0.06104-0.00378l-1.98853-0.23114L2522.06641,761.70819"/>
	</g>
	<g>
		<polygon class="st0" points="2783.84058,730.78839 2808.50195,737.35156 2807.93359,739.90161 2775.85938,761.22687 
			2763.13062,761.0047 2757.58618,764.35815 2741.45361,784.26117 2732.99194,790.67615 2721.75586,797.245 2720.7981,796.44861 
			2703.55981,808.10645 2695.85986,809.8689 2694.14722,805.09985 2691.64429,812.07294 2686.6792,815.09253 2687.34204,817.09314 
			2670.38818,819.71307 2669.31226,818.81024 2662.05688,828.64728 2652.03247,829.46051 2646.17627,840.61713 
			2647.60107,841.78375 2641.00146,851.34222 2637.86426,850.49683 2639.45972,848.83038 2636.46802,848.28705 
			2633.37378,843.35278 2620.02783,842.95404 2600.68701,845.58154 2598.56445,843.80719 2600.28662,842.00775 
			2590.75586,839.45343 2591.15234,837.67383 2586.42334,837.24756 2583.46021,842.18677 2577.12329,841.21667 
			2575.36084,836.31158 2563.30835,830.90771 2556.04688,824.81403 2553.17163,824.66541 2552.25049,822.78925 
			2544.61938,823.44818 2541.65649,818.71844 2543.4248,816.87085 2535.63062,812.33319 2547.90234,802.98901 2560.75586,797.24023 
			2558.34375,795.68805 2559.19019,791.89044 2555.7124,787.6001 2548.78589,785.41663 2536.74463,775.46393 2537.37964,772.61432 
			2534.50415,772.22638 2535.0957,769.57233 2532.17627,769.1839 2529.71826,761.31372 2525.37109,760.01001 2524.13672,760.49384 
			2529.63965,754.74371 2532.28052,754.78979 2539.51831,749.80865 2550.16724,747.02948 2550.62769,739.75055 
			2556.15039,733.99036 2583.03613,717.44269 2586.47266,709.2641 2580.71045,708.77679 2580.88867,705.1947 2586.00928,697.29755 
			2591.29028,695.40692 2593.2124,693.82562 2593.4541,694.84918 2600.04712,700.67938 2600.10889,704.2594 2606.60791,704.66138 
			2608.99097,706.58173 2615.2688,705.78888 2620.45557,707.86224 2622.85034,705.95178 2628.04346,707 2629.80859,701.8252 
			2633.1875,699.07867 2639.01733,698.18573 2637.45386,693.78143 2639.43018,691.04126 2642.61475,689.52533 2647.88794,685.55945 
			2648.24268,688.14398 2650.65015,686.77405 2652.50757,689.26208 2651.19775,695.13879 2660.0896,701.55573 2704.53467,705.41309 
			2719.13135,704.65515 2741.53442,714.07037 2751.20068,716.29547 2760.13208,721.46069 2769.82007,718.69556 2775.23462,718.7901 
					"/>
	</g>
</g>
<g id="夏津县_1_">
	<g class="st1">
		<g>
			<polygon class="st0" points="2499.46143,751.76776 2510.6582,752.97614 2516.95703,755.94678 2515.87915,760.78387 
				2520.48657,760.08466 2521.13892,762.09119 2525.06738,760.37946 2528.67432,761.34485 2531.16016,769.28906 
				2533.92017,769.55823 2533.32983,772.20605 2536.2041,772.59998 2535.61401,775.24786 2547.93872,785.59833 
				2554.78809,787.73145 2558.06592,791.64392 2557.19775,795.53925 2559.45801,796.65918 2547.26294,802.11865 
				2531.47144,814.12701 2526.63794,822.2074 2533.58179,823.716 2532.78198,827.3056 2528.05078,830.07147 2519.07861,831.93457 
				2521.99609,836.35028 2516.76636,841.11487 2516.06738,843.93268 2506.448,843.76477 2494.30981,850.68024 2494.01855,857.87604 
				2486.88647,864.5719 2479.35522,866.37421 2463.48804,875.61871 2463.75903,874.40179 2454.70166,873.89996 
				2449.64087,875.91724 2448.77612,878.84271 2440.83521,878.7041 2438.45801,876.71655 2425.62866,875.39374 
				2424.68555,873.49878 2413.64575,876.95874 2413.13428,873.36469 2410.17944,876.11859 2399.97974,877.9173 
				2390.48999,876.76941 2389.83936,873.95874 2375.87573,875.45844 2370.43433,875.36346 2369.49829,873.5545 2356.2981,873.13995 
				2344.68677,866.98865 2340.44165,866.85931 2338.68872,861.99127 2335.44019,861.72583 2332.16626,867.78302 
				2329.91528,868.49268 2329.40039,864.87402 2327.82837,867.5907 2322.82861,867.50342 2322.15063,866.12872 
				2325.67529,866.19025 2324.16968,861.64575 2320.27563,863.32123 2316.76953,862.38214 2317.17017,860.58429 
				2312.43091,860.16394 2311.08252,864.02637 2307.59985,863.09998 2303.84644,865.0603 2301.69116,865.02271 
				2302.07007,863.32269 2290.36816,861.75555 2286.53467,863.83728 2285.79907,866.50104 2284.08374,865.80194 
				2284.65894,863.22131 2281.78345,862.8335 2282.37354,860.18567 2276.66406,859.74219 2278.54077,851.32166 
				2280.98364,850.54785 2283.26196,852.45996 2292.8335,845.56116 2299.02051,837.5351 2296.76074,834.18677 2295.12183,835.29382 
				2295.78564,832.3158 2290.69556,829.0531 2291.08667,827.2981 2299.54224,820.7113 2303.30884,821.71625 2310.22241,818.78589 
				2311.33203,814.7229 2314.20654,813.83997 2313.84058,810.78864 2320.76343,809.96411 2323.95776,803.86865 
				2340.01001,796.18054 2341.07324,792.24561 2344.96387,792.31354 2351.45044,795.37958 2358.80664,795.55713 
				2373.04346,802.77942 2382.24365,801.96393 2392.27026,784.82721 2393.83545,777.84387 2411.01318,769.44482 
				2414.83154,777.17902 2418.84985,779.36096 2431.87915,780.66266 2439.25415,775.62244 2443.47339,769.82111 
				2446.06177,769.86633 2451.29199,762.83032 2454.26074,761.92444 2459.94702,756.10583 2466.22559,757.1792 2467.2334,755.36127 
				2470.70581,756.29358 2486.30469,752.55103 			"/>
		</g>
		<g>
			<path class="st0" d="M2560.69531,796.3186l-12.90356,6.33124l-15.55029,11.8407l-4.48682,7.55853l6.54639,1.06573
				l-0.57007,4.34857l-5.18921,3.15082l-8.61865,1.82623l3.10229,3.70697l-5.40771,5.24652l-0.646,2.89844l-10.47339,0.16089
				l-11.40332,6.60309l-0.08252,6.85559l-7.45605,7.11383l-7.88599,1.96179l-16.5686,9.68652l-0.40723-1.95312l-7.99414-0.13953
				l-4.39331,1.80786l-0.62695,2.81317l-9.19995,0.17688l-2.71436-2.10388l-12.66309-1.23401l-1.20142-1.92999l-10.50781,3.65936
				l-1.09058-3.14368l-1.36157,1.89154l-10.94385,2.0744l-10.09253-1.18909l-0.98145-2.95776l-13.03906,1.68768l-5.9021-0.0968
				l-1.32739-1.99988l-12.65845-0.22095l-11.8728-6.21112l-4.16943-0.07275l-2.15674-5.0838l-2.09351-0.03656l-2.67358,5.6687
				l-3.39136,1.21155l-0.8457-1.617l-6.4165,0.50183l-1.4209-2.25934l4.06641-0.42023l-1.58667-3.14636l-2.83252,1.60822
				l-4.61304-1.026l0.12305-2.02374l-3.33911-0.05829l-0.81787,3.66925l-4.54102-0.71155l-3.15063,1.8418l-3.21045,0.0423
				l-0.03125-2.08777l-10.69531-1.1507l-3.03857,1.77637l-0.63501,2.84973l-3.39917-0.78369l0.34692-2.75043l-2.45557-0.04285
				l0.17163-2.99884l-5.2998-0.09253l1.58838-9.31567l3.40381-1.26672l2.70435,1.87054l8.3689-6.51471l5.94482-7.73553
				l-1.74268-2.32635l-1.67188,2.32812l0.14404-4.98218l-4.94678-2.99005l0.31958-2.30884l8.96216-7.06927l4.44189,0.9187
				l6.0083-2.68823l0.85596-3.84033l3.09106-1.13715l-0.72998-2.73224l7.62134-1.29126l2.69409-5.72345l16.22607-7.86932
				l0.85718-3.84625l5.08496-0.25519l6.7356,3.11957l7.12866,0.12445l14.44067,7.26263l8.34937-0.81799l9.42627-16.63153
				l1.56592-7.02637l18.15845-9.02026l4.6814,8.1604l3.69775,1.94934l12.44629,1.21167l6.64307-4.73993l4.2356-5.87457
				l3.10645-0.17291l4.63452-6.70874l3.30786-1.11493l5.55859-5.80255l6.64429,0.86505l0.34473-1.5473l4.65063,0.73816
				l15.14868-3.71362l13.41089-0.80951l11.46802,1.22534l6.77905,3.16327l-0.83398,4.81671l3.771-0.96533l1.20386,2.04059
				l2.78345-1.62732l4.61304,1.02582l2.71338,8.07709l2.50879,0.04382l-0.18066,2.9989l2.45557,0.04285l-0.21533,3.19452
				l12.04102,9.9527l6.73901,2.06982l3.61353,4.20062l-0.79443,4.0011L2560.69531,796.3186z M2547.14062,802.19025l12.31714-5.53107
				l-2.05444-0.8092l0.6626-4.20581l-3.27808-3.91272l-6.70679-2.05676l-12.38062-10.17957l0.50317-2.89496l-2.45557-0.04285
				l0.17188-2.99902l-2.34961-0.04102l-2.89624-8.17242l-3.60669-0.96527l-3.15088,1.84204l-1.43018-2.1369l-3.99683,1.02301
				l0.46729-5.16077l-6.29907-2.97076l-11.19653-1.20837l-13.15649,0.78333l-15.25293,3.74249l-3.81836-0.93231l-0.33398,1.49829
				l-6.95264-0.7536l-5.4314,5.66943l-3.22363,1.05499l-4.70923,6.8056l-3.10938,0.18506l-4.1167,5.69891l-7.00854,5.02814
				l-13.29834-1.12848l-4.08032-2.10309l-3.9563-7.87158l-17.17773,8.39905l-1.54004,6.91003l-9.60571,16.9599l-9.3125,1.12042
				l-14.57056-7.2771l-7.11938-0.12433l-6.72339-3.11938l-3.89038-0.06787l-0.81787,3.66919l-16.29785,7.95392l-2.74268,5.82098
				l-7.37451,1.09888l0.70483,2.64594l-3.21338,1.28827l-0.84644,3.79755l-6.71558,3.15491l-4.22754-0.96393l-8.45557,6.58667
				l-0.39136,1.75519l4.94824,2.98383l-0.52197,3.25684l0.74683-1.04285l3.16699,2.97748l-6.12231,8.25433l-8.8999,6.94733
				l-3.03003-1.88226l-2.44238,0.7738l-1.87671,8.42059l5.2998,0.09247l-0.18042,2.99872l2.45557,0.04285l-0.15552,2.92566
				l1.71533,0.69916l0.54126-2.42773l3.59985-2.22705l11.78101,1.13263l-0.03003,2.04382l2.15552,0.0376l3.23193-1.88977
				l4.00391,0.85565l0.7876-3.53448l4.88062-0.2525l0.0188,2.14294l3.5061,0.93909l3.13721-1.78082l2.80566,4.16205
				l-4.06787,0.42621l0.67798,1.37469l4.99976,0.08728l0.59009-2.64783l1.49683,3.54987l2.25098-0.70978l2.72559-5.7843
				l3.39282-0.22308l2.15674,5.08374l3.98413,0.06958l11.87256,6.21112l12.80835,0.22357l1.32788,1.99982l5.44141,0.09497
				l13.44019-1.73602l1.17383,3.047l9.49023,1.14789l10.19946-1.79865l2.01514-2.79492l1.45117,3.63495l10.39233-3.61841
				l1.59082,2.05359l12.55933,1.21991l2.64697,2.09027l7.94116,0.13861l0.59009-2.64783l5.0481-2.23846l8.92627,0.09436
				l0.14697,1.56812l15.68335-9.17419l7.71533-1.87274l7.13208-6.69586l0.08594-6.91095l11.97583-7.10229l9.98706,0.06995
				l0.59009-2.64777l5.33862-4.93469l-3.27319-3.89392l9.32812-2.38495l4.73096-2.76575l0.80005-3.58966l-6.65674-1.08618
				l4.44092-8.388L2547.14062,802.19025"/>
		</g>
	</g>
</g>
<g id="武城县_1_">
	<g>
		<path class="st0" d="M2593.50781,678.96075l-4.10327,0.98413l2.01465,1.62524l0.14209,13.28705l-5.58691,2.22906l-5.12964,7.89728
			l-0.17017,3.58844l5.35303,0.09338l-2.8606,8.37872l-27.06055,16.73511l-5.52368,5.76624l-0.07886,6.91705l-11.03052,3.14099
			l-6.82031,4.85956l-3.0498,0.07574l-5.47729,5.71802l-3.19922-0.12952l-4.36304,1.11475l0.46753-5.16089l-6.2981-2.97681
			l-11.198-1.20221l-13.15674,0.78333l-15.25269,3.74249l-3.81836-0.93225l-0.33374,1.49817l-6.95117-0.7597l-5.43311,5.67572
			l-3.22339,1.05475l-4.70923,6.80585l-3.10791,0.17896l-4.11816,5.7049l-7.00854,5.02808l-13.29712-1.13434l-4.08008-2.10333
			l-3.95825-7.86554l-17.16821,8.39923l-1.53882,6.90399l-9.61597,16.96594l-9.31128,1.11426l-14.57178-7.27112l-7.11963-0.12427
			l-6.83105-3.17029l1.61377-8.31458l7.05957-5.13788l4.24219-0.05487l0.3313-1.48602l-2.4707-0.96997l1.98657-3.3847
			l2.82446-0.17792l-0.97559-0.39758l2.7959-7.21356l-3.125-4.9964l2.58643-5.24054l18.00537-10.60071l-2.19653-1.8432
			l2.88135-1.34924l-2.0293-2.7121l1.95312-9.16187l1.89722-1.23169l0.51367,1.47638l5.60791-3.27869l2.31348-3.89471
			l3.08154,1.7298l7.76855-3.70117l5.41943,1.86261l4.01611-5.56555l1.72583,1.60779l4.44531-2.59888l1.91162-2.64935
			l-3.58911-1.95959l4.73779-2.3974l1.88452-2.60675l-3.59424-1.89825l1.84912-2.44788l3.07227-0.13672l1.87158-2.58856
			l-3.21167-4.96729l11.44556-12.9989l-0.84741-1.7276l-5.49463-0.09589l0.02954-2.32007l7.30298-1.13708l-2.78345-5.65338
			l3.17603,0.50964l3.01147-1.8136l10.89697-0.82892l-4.25952-2.57288l11.85791-1.40131l1.99951-2.76453l8.4502,0.87799
			l0.57642-2.58655l3.10205,2.71222l2.09375,0.0365l1.04395-4.68414l3.51123-1.27094l7.17822,1.0954l7.75342-2.79919
			l11.11084,3.10382l6.21606-2.78296l28.58081-3.58356l11.58423,8.26276l28.14282,3.47479l13.6416,4.28345l6.29102,5.23584
			L2593.50781,678.96075z M2588.12842,680.02087l4.60718-1.45441l4.02612-5.57135l-5.90161-4.95276l-13.39893-4.21796
			l-28.22876-3.48853l-11.34619-8.21552l-28.01001,3.4892l-6.36206,2.84167l-11.18433-3.09271l-7.70557,2.78137l-7.23364-1.08392
			l-2.72144,0.83032l-1.07397,4.81873l-3.40503,0.27832l-1.95947-2.26868l-0.42114,1.8894l-8.65625-0.78949l-1.948,2.69171
			l-11.03125,0.95532l4.26978,2.56708l-12.0022,1.41119l-3.16431,1.90302l-2.08911-0.53375l2.52734,5.13324l-7.53101,1.32355
			l-0.30103,1.35138l5.2998,0.09253l1.41187,2.25934l-11.43726,12.96198l3.18896,4.94843l-2.15137,3.24695l-3.16089,0.17804
			l-1.49121,1.55786l3.55396,1.87909l-2.03442,3.35925l-4.32007,1.79694l3.3291,1.81396l-2.04321,3.35907l-5.24292,3.1131
			l-1.41943-1.43073l-3.73145,5.16541l-5.81763-1.78998l-7.87622,3.7486l-2.62915-1.69104l-2.0188,3.40857l-6.84668,4.06116
			l-0.51465-1.47015l-2.51465,9.05402l2.21606,2.94861l-2.81787,1.2644l2.08569,1.74323l-18.22656,11.07568l-2.47437,4.77588
			l3.12646,4.99017l-2.91504,6.95361l2.33203,0.95538l-4.32983,0.56903l-1.771,2.45538l2.35498,0.93115l-0.24805,2.34686
			l-4.64331,0.26288l-6.60962,4.70972l-1.71729,7.70544l6.27417,2.96375l7.12866,0.12445l14.44165,7.25659l8.34961-0.81818
			l9.4248-16.62531l1.56592-7.02625l18.15845-9.02032l4.68115,8.1604l3.698,1.94934l12.44775,1.20557l6.64136-4.73376
			l4.24463-5.87469l3.09937-0.17908l4.63281-6.7027l3.30908-1.12091l5.55835-5.80249l6.65186,0.87122l0.34595-1.55322
			l4.64087,0.74408l15.14868-3.71375l13.41113-0.80945l11.46875,1.21936l6.77808,3.16931l-0.83252,4.81061l3.77124-0.96558
			l2.70679,0.26825l5.44409-5.68774l3.18701-0.13477l6.73633-4.79956l10.61255-2.81677l0.08862-6.76355l5.74146-6.10614
			l26.92065-16.58398l3.06299-7.49762l-5.23804-0.09143l-0.22925-4.26434l5.30078-8.22565l5.41064-2.03571l-0.03125-12.75128
			L2588.12842,680.02087"/>
	</g>
	<g>
		<polygon class="st0" points="2537.88623,652.1203 2548.99438,660.25183 2577.46143,663.82428 2590.86035,668.0423 
			2596.76196,672.99506 2592.73584,678.56647 2588.43066,679.46124 2590.53271,681.96582 2590.56421,694.71692 
			2585.41772,696.56085 2579.90063,704.84418 2579.66284,708.93463 2585.31982,709.33423 2582.25684,716.8316 2555.44238,733.33771 
			2549.68384,739.32086 2549.50635,746.2854 2539.10205,749.0014 2532.15747,753.90179 2529.44556,753.85449 2523.52637,759.7243 
			2521.07959,759.4422 2517.04834,760.42157 2518.05542,755.90253 2511.28638,752.4939 2499.74854,751.2243 2486.35205,752.00952 
			2471.07397,755.74542 2467.14917,754.6947 2466.08716,756.55469 2460.01392,755.51556 2453.8772,761.48596 2450.86035,762.40936 
			2445.93506,769.30951 2443.34692,769.26434 2438.59131,775.36322 2431.94971,780.09705 2419.5022,778.89142 2415.8042,776.9422 
			2411.84912,768.90485 2393.2085,777.5423 2391.39868,784.82831 2381.97363,801.45374 2373.62427,802.27179 2359.42749,795.0686 
			2352.05371,794.89075 2345.77979,791.927 2347.49707,784.22162 2354.10669,779.51178 2358.18774,779.58301 2359.20361,777.21271 
			2356.64282,775.97089 2358.41382,773.51556 2362.37988,773.58478 2360.41162,771.99115 2363.33984,765.25879 2360.20044,760.0473 
			2362.67505,755.27142 2380.79346,744.67883 2378.81543,742.4527 2381.33765,741.68024 2379.41748,738.23962 2381.3623,729.51331 
			2381.66089,730.40253 2389.12549,726.75128 2391.31201,723.18591 2393.29297,724.84113 2401.81763,721.12854 
			2406.91113,723.10211 2411.3667,717.75305 2412.02026,719.07819 2417.88403,716.20319 2420.17041,713.10614 2416.74316,710.89764 
			2420.83057,709.26855 2423.20459,706.13617 2419.5437,703.86224 2421.03491,702.30444 2423.67603,702.35052 2426.32861,699.16162 
			2423.1582,693.93115 2434.53882,681.26263 2433.58276,678.90704 2427.88354,678.61725 2428.18481,677.26581 2435.27246,676.41956 
			2433.18848,670.80902 2434.68848,671.40002 2438.44189,669.4397 2450.06934,668.63586 2446.17432,665.46155 2456.75781,664.72546 
			2459.15356,661.81445 2467.16064,662.9303 2468.23096,660.71442 2469.81689,662.82935 2473.03491,663.03284 2474.66943,657.88623 
			2477.39062,657.05591 2484.26172,658.17651 2492.32983,655.35834 2503.03516,658.49194 2509.87622,655.60938 		"/>
	</g>
</g>
<g id="乐陵市_1_">
	<g class="st1">
		<g>
			<polygon class="st0" points="3191.25977,441.83545 3195.68359,446.69485 3203.64038,449.86636 3206.00635,457.43399 
				3196.28784,458.22818 3190.99756,461.23596 3179.45801,473.26328 3181.01782,477.12732 3179.0481,477.09293 
				3180.69849,480.51044 3178.67163,483.31738 3181.1665,484.65622 3177.33667,489.34705 3177.96704,498.21652 3175.82935,498.1792 
				3180.68506,506.71109 3176.04126,514.53699 3182.01562,515.06488 3189.94971,512.25055 3192.15967,513.11786 
				3186.68848,525.65009 3174.19995,530.3985 3165.59668,542.34204 3161.2915,543.23682 3164.54419,546.78662 3165.45776,555.69788 
				3158.69946,566.4458 3147.38232,572.18463 3141.82617,577.21973 3134.16846,592.0835 3126.86548,593.89587 3115.89258,591.68463 
				3110.71069,593.68762 3090.55249,612.39703 3077.52075,613.17639 3070.91431,616.08142 3056.42358,617.7561 
				3051.67993,613.77509 3042.11011,615.57251 3035.2334,619.49188 3037.74487,626.8042 3032.11865,633.4281 3017.56348,635.11395 
				2997.20337,634.82288 3003.04883,630.56946 3000.62671,628.02863 2993.87134,626.86713 3000.17847,617.30841 
				2995.55713,611.94214 2995.39209,599.94995 2990.40015,595.65149 2984.94922,593.45068 2963.11084,592.36359 
				2962.58936,585.31311 2954.24292,582.896 2949.47681,578.89618 2948.7229,576.07141 2950.68774,573.3432 2953.57812,572.42981 
				2975.15356,565.78351 2980.7251,560.79773 2997.59424,556.08893 3001.82324,544.95312 3008.35913,541.13214 3011.76514,534.8808 
				3012.26099,530.90527 3007.56641,525.62982 3004.96802,517.75122 3009.87573,508.86179 2993.85181,470.22607 
				2994.83545,459.24847 3001.12769,450.35251 2992.99707,454.20703 2994.30151,448.35483 3009.6626,448.62296 
				3034.72339,453.07529 3040.96655,452.15903 3040.37427,450.79813 3043.27148,449.09909 3061.34546,445.43042 
				3072.80225,445.6304 3100.81226,450.14032 3108.07178,450.27316 3120.61255,446.48337 3158.39819,452.17068 
				3183.41528,445.55991 			"/>
		</g>
		<g>
			<path class="st0" d="M3207.10156,457.61298l-10.65942,1.27496l-4.79248,2.80154l-11.23657,11.74417l1.78149,3.90463
				l-2.37085,0.44971l1.87256,2.50049l-1.94238,2.98669l2.36377,0.93134l-3.85376,5.31644l0.72925,8.98184l-2.43213,0.3688
				l5.12231,7.61563l-4.48096,7.81039l4.82275,0.08423l7.81079-2.81674l3.18457,1.06851l-5.45337,13.28772l-12.81934,5.00049
				l-8.38647,11.80621l-4.11328,0.99023l3.18237,2.67078l1.02246,9.25696l-6.91553,11.09509l-11.55493,5.93109l-5.33838,4.85468
				l-7.63672,14.88873l-8.06982,2.1488l-11.22705-2.18494l-4.47119,1.83722l-20.07153,18.68036l-13.54688,0.94232l-6.34326,2.83588
				l-15.07983,1.7749l-5.13574-4.0553l-8.67432,1.80066l-6.2981,3.62878l2.67456,6.86066l-5.93896,7.18945l-15.27075,1.91284
				l-21.49878-0.30151l6.00049-5.11957l-2.14429-1.79944l-6.89746-1.12103l6.15332-10.18146l-4.53638-4.99017l-0.2334-12.12219
				l-4.75024-3.99365l-5.19385-2.07959l-21.92456-1.05811l-0.92358-7.3949l-7.9248-2.12115l-5.06836-4.19543l-0.89355-3.15265
				l2.18042-3.17883l3.36157-1.15662l21.4436-6.612l5.34985-4.86676l16.99731-4.80475l3.84937-10.7865l6.75415-4.04431
				l3.14941-5.93652l0.45044-3.73083l-4.58765-5.04022l-2.7041-8.11981l4.92236-9.07333l-16.01172-38.37164l0.98218-11.21091
				l5.46118-7.7933l-6.69653,3.82449l0.7749-7.25504l16.47095-0.05615l25.10498,4.453l5.03027-0.76541l-0.72339-0.61429
				l3.50293-2.46808l18.4812-3.78436l11.73462,0.1864l28.10547,4.5177l7.00513,0.12225l12.3606-3.77448l38.1189,5.66238
				l24.51221-6.53384l8.09521-3.8551l5.29419,5.13245l7.88208,3.10904L3207.10156,457.61298z M3195.98291,458.32126
				l10.02319-0.88708l-2.36621-7.56754l-7.80933-3.07709l-4.57104-4.95395l-7.72754,3.67722l-24.83691,6.63876l-38.08252-5.66818
				l-12.3125,3.7572l-7.39233-0.0925l-28.10571-4.51767l-11.45654-0.19998l-18.07446,3.66891l-2.89722,1.69885l0.94897,0.79636
				l-6.36987,1.48495l-25.29028-4.45654l-15.36157-0.26813l-1.3042,5.85233l7.39575-4.21741l-5.55713,9.25879l-0.98389,10.97778
				l16.03613,38.4209l-4.91968,9.1041l2.5979,7.87866l4.62939,5.09015l-0.40112,4.06921l-3.26489,6.17407l-6.70654,3.98987
				l-3.8833,10.85931l-17.2146,4.98523l-5.34009,4.86078l-21.81567,6.77106l-2.88159,0.91376l-1.96484,2.72803l0.75391,2.82495
				l4.76587,3.99976l8.07617,2.16064l0.79199,7.30695l21.64355,1.04669l5.53589,2.17773l5.00171,4.17615l0.26538,12.17804
				l4.60229,5.0528l-6.28833,9.87195l6.51978,1.06561l2.72339,2.18365l-5.91113,4.7066l20.36011,0.29108l14.55518-1.68579
				l5.62622-6.62396l-2.70044-6.94098l6.8623-4.21448l9.2876-1.96198l5.22925,4.06921l14.49048-1.67462l6.35449-2.84796
				l13.28418-0.8363l19.98315-18.60205l4.948-2.06848l11.38159,2.16925l7.30298-1.81238l7.57275-14.76086l5.5249-5.05414
				l11.43335-5.82263l6.75806-10.74805l-0.91357-8.91101l-3.57227-2.99054l4.62476-1.45404l8.35083-11.76379l12.74146-4.92816
				l5.47095-12.53247l-2.20996-0.86725l-7.67725,2.77576l-5.85718-0.05927l4.26953-8.25577l-5.39551-8.01965l2.67773-0.47507
				l-0.70068-8.67422l3.8999-4.88596l-2.33984-0.91891l1.87207-3.2269l-2.17554-2.89276l2.49487-0.49054l-1.62524-3.5705
				l11.49756-12.23657L3195.98291,458.32126"/>
		</g>
	</g>
</g>
<g id="禹城市_1_">
	<g>
		<path class="st0" d="M2797.75122,864.53467l-3.1394,0.31958l-4.4646,3.99811l3.19946-0.6684l-6.91431,5.36133l-9.54688,12.7558
			l1.51685,5.68646l3.96606,0.06927l-0.0188,2.31403l-4.53564,1.1731l0.1355,5.71771l-3.64478,3.10406l-0.86938,3.90161
			l-5.04321,2.17712l-8.44678-2.64587l-6.47168-4.18317l-6.53638-9.02783l-7.2168,1.7832l-13.4314,8.2619l-3.77002,4.74115
			l6.71826,8.01172l0.63306,4.16113l-24.60132,18.95105l-4.74805,0.05823l-7.82373-4.12683l-4.13843,0.86102l-3.44409,2.80048
			l-11.46191,18.84283l-8.76294,6.85156l0.54907,3.82184l5.46558,7.06921l-1.95776,2.29865l-9.40356,2.04602l-9.96411-1.52466
			l-54.70703-15.7066l-5.06079-4.18927l-0.448-5.23193l9.36816-16.0127l-0.49219-10.96033l-0.74805-2.81244l-10.87964-2.19104
			l9.21655-3.43652l3.53003-2.86664l4.81421-1.07019l-0.97119,2.00903l1.56348,0.02734l0.72656-3.25952l-2.34961-0.04102
			l-1.42847-2.18591l0.42749-2.19623l3.22461-1.17786l1.5127-6.7876l7.07642-5.92963l-0.7561-2.85535l8.99219-1.27362
			l2.53882-5.38239l-7.9397-1.10223l0.32617-3.33417l1.6709,0.42236l1.61865-2.24951l-2.29956-1.93707l4.03906-5.35004
			l6.39209-1.10999l4.37329,1.1076l-1.427,2.14807l3.20581,0.85425l1.67578-1.75116l2.604-0.14484l-1.51099-4.44025
			l-5.32935-1.07544l6.08594-9.40289l6.00562-0.12817l1.74658-1.8299l5.57861,0.83423l0.7522-3.37555l-6.20142-2.93225
			l-4.2168,0.89648l6.29053-10.32031l-1.31299-0.83319l5.27539-11.21594l10.49316-1.08759l6.40137-9.70453l1.92871,0.77667
			l16.95386-2.62l-0.82935-1.61078l5.14014-3.4093l1.5293-6.86133l2.68652,4.65741l7.69995-1.76251l16.5-11.64612l1.68726,0.78436
			l11.23633-6.56891l8.46167-6.41486l16.02075-19.80072l5.27075-3.35815l13.12427,0.11877l32.20972-21.4151l5.26465,7.3725
			l0.17065,6.11761l-6.13623,8.07593l-7.24854,19.75128l-2.45972,3.51758l-1.16382,5.65814l-6.15381,0.23657l-2.22168,1.25659
			l1.7312,0.03021l8.67261,8.31598l3.23267,5.15179l-1.48999,1.79095l1.73999,0.0304l1.73315-1.76831l4.72949,0.94202
			l-7.17773,13.30652l-4.85498,2.0885l-9.01733,14.71729l0.92163,8.95441l7.41504,12.08789L2797.75122,864.53467z
			 M2794.04053,864.31616l2.63013-0.06445l-1.28833-6.55426l-7.42114-12.10059l-0.95972-9.18195l9.17725-15.0769l4.83618-2.0824
			l7.1687-12.47205l-3.31421-0.8866l-1.66211,1.68994l-3.31787,0.12616l1.42236-2.28333l-3.07275-4.91565l-8.18188-8.04987
			l-2.72046-0.04749l3.17529-2.51068l5.65625,0.00677l1.0979-5.36475l2.48218-3.57867l7.25-19.75739l6.08862-7.94189
			l-0.13208-5.8526l-4.1958-6.83832l-31.85571,21.18182l-13.13599-0.10632l-4.92065,3.10022l-15.99902,19.78265l-8.61426,6.54095
			l-11.72656,6.86127l-1.60791-0.78302l-16.1936,11.42407l-8.54297,2.00568l-1.81958-3.65375l-1.17212,5.25903l-5.03589,3.1781
			l0.9165,1.77765l-18.27881,3.23566l-1.20386-0.72711l-6.18555,9.37048l-10.43042,1.04565l-5.16699,10.45056l1.3457,0.84607
			l-6.45947,9.8446l3.47192-0.73773l7.00439,3.14886l-0.72119,4.30933l-5.87622-0.7287l-1.698,1.76892l-5.91602,0.08698
			l-5.93066,8.38666l5.0752,1.02185l2.01318,5.28998l-3.0979,0.41254l-1.74561,1.82343l-4.73071-0.93591l1.41919-2.1485
			l-3.45776-0.9198l-5.61719,0.85364l-3.76782,4.61212l2.29199,1.93079l-2.09546,3.31519l-1.37939-0.33698l-0.41992,1.88342
			l8.01611,1.11591l-2.48877,6.35339l-8.74512,1.08118l0.69897,2.63367l-7.14014,6.09387l-1.53589,6.89166l-3.22437,1.17792
			l-0.38965,1.74872l0.89941,1.73462l2.55249,0.04456l-0.46802,4.28918l-3.40503,0.27808l0.89233-1.77686l-3.18921,0.66241
			l-3.49756,2.8429l-8.24219,2.56329l9.89648,1.98975l1.10425,3.24231l0.49487,11.10791l-9.35791,16.00641l0.34131,4.87408
			l4.73535,3.98132l54.51538,15.64764l9.54199,1.51111l8.76709-1.81763l1.61768-1.64771l-5.37646-6.95081l-0.62866-4.14264
			l8.89966-7.10681l11.46118-18.83698l3.71021-3.04144l4.82324-1.06976l8.04907,4.14917l3.92212,0.06848l24.11816-18.41321
			l-0.55225-3.80963l-6.80273-8.11182l3.97681-5.30811l13.71606-8.46564l7.90186-1.99231l7.15283,9.28424l6.27612,4.06903
			l7.69165,2.57129l4.27295-1.70551l0.85181-3.82202l3.60815-3.01892l-0.13721-5.87115l4.60376-1.23956l0.30933-1.388
			l-3.8335-0.06689l-2.01611-6.27252l9.72388-13.15167l6.08423-4.02515l-2.71558,0.56647L2794.04053,864.31616"/>
	</g>
	<g>
		<polygon class="st0" points="2808.75952,740.5791 2812.95483,747.41742 2813.08716,753.27014 2807.05298,761.12701 
			2799.74878,780.96942 2797.31763,784.43842 2796.16846,789.91272 2790.86841,789.82019 2787.12183,791.82977 
			2790.05762,792.46417 2798.2395,800.51392 2801.31177,805.42957 2799.55811,807.20996 2802.73389,807.76263 2804.86987,805.89685 
			2808.18408,806.78345 2801.01489,819.25537 2796.41699,821.14575 2787.03833,836.24951 2787.92871,845.50415 2795.38257,857.6972 
			2796.6709,864.25153 2794.51758,864.16479 2788.5022,869.27179 2791.69043,869.21075 2785.72729,873.12769 2775.93091,886.16766 
			2777.49072,892.41974 2781.73193,892.72705 2781.42236,894.11517 2777.22998,894.98126 2776.95557,901.22589 
			2773.47949,904.05048 2772.49585,908.06659 2768.22266,909.77228 2760.53125,907.20087 2754.25513,903.13171 
			2747.67432,893.98651 2739.38599,895.76331 2725.60571,904.19708 2721.51953,909.28247 2728.3103,917.72534 2728.86255,921.53497 
			2704.74438,939.94824 2700.82251,939.87976 2693.1875,935.78076 2688.22607,936.67639 2684.3335,939.73926 2672.77881,958.67877 
			2664.02246,965.49969 2664.46167,969.81689 2669.88403,976.87921 2668.26636,978.52692 2659.49927,980.34448 2649.95752,978.8335 
			2595.44214,963.18567 2590.70679,959.20447 2590.36523,954.33038 2599.68164,938.4704 2599.23486,927.2652 2598.41943,924.19995 
			2588.22778,921.98389 2596.25806,919.53345 2599.96753,916.57788 2603.15674,915.91528 2601.9314,917.19531 2605.1084,917.74188 
			2606.5481,913.46979 2603.58447,913.08044 2602.6853,911.34583 2603.0752,909.59692 2605.95752,908.72021 2607.83521,901.52753 
			2614.85547,895.73212 2614.27637,892.79987 2622.55371,891.98669 2625.8208,885.76361 2617.49438,884.24933 2617.91406,882.36584 
			2618.45215,882.8172 2621.43481,879.7384 2619.09692,877.45691 2622.86475,872.84485 2628.48218,871.99133 2631.93945,872.91113 
			2630.34277,874.58374 2634.61255,876.15619 2636.99683,874.17194 2639.54077,874.21637 2638.37207,868.67706 
			2633.00635,867.44769 2638.93701,859.0611 2644.36938,859.15594 2646.55103,857.20502 2651.74585,858.24719 2653.32153,853.92224 
			2646.55396,850.50751 2642.67212,851.21326 2649.21631,841.74463 2647.78589,840.52258 2652.95288,830.0722 2662.93286,829.25806 
			2669.56909,819.65601 2670.32349,820.28918 2688.63477,817.62531 2688.13525,815.36975 2692.97778,812.42163 
			2694.34302,806.93268 2695.57739,810.38593 2704.47046,808.68103 2720.89917,797.15649 2721.80933,797.92749 
			2734.17261,791.11426 2742.76978,784.60968 2758.84692,764.7547 2763.76782,761.65448 2776.50537,761.87683 		"/>
	</g>
</g>
</svg>
